<svg width="24.000000" height="24.000000" viewBox="0 0 24 24" fill="none" xmlns="http://www.w3.org/2000/svg" xmlns:xlink="http://www.w3.org/1999/xlink">
	<defs>
		<clipPath id="clip6_324">
			<rect id="weui:location-filled" rx="-0.500000" width="23.000000" height="23.000000" transform="translate(0.500000 0.500000)" fill="white" fill-opacity="0"/>
		</clipPath>
	</defs>
	<g clip-path="url(#clip6_324)">
		<path id="Vector" d="M11.26 22.13C11.26 22.13 4 16.01 4 10C4 7.87 4.84 5.84 6.34 4.34C7.84 2.84 9.87 2 12 2C14.12 2 16.15 2.84 17.65 4.34C19.15 5.84 20 7.87 20 10C20 16.01 12.73 22.13 12.73 22.13C12.33 22.5 11.66 22.5 11.26 22.13ZM12 13.5C12.45 13.5 12.91 13.4 13.33 13.23C13.76 13.05 14.14 12.79 14.47 12.47C14.79 12.14 15.05 11.76 15.23 11.33C15.4 10.91 15.5 10.45 15.5 10C15.5 9.54 15.4 9.08 15.23 8.66C15.05 8.23 14.79 7.85 14.47 7.52C14.14 7.2 13.76 6.94 13.33 6.76C12.91 6.59 12.45 6.5 12 6.5C11.07 6.5 10.18 6.86 9.52 7.52C8.86 8.18 8.5 9.07 8.5 10C8.5 10.92 8.86 11.81 9.52 12.47C10.18 13.13 11.07 13.5 12 13.5Z" fill="#777777" fill-opacity="1.000000" fill-rule="evenodd"/>
	</g>
</svg>
