<svg width="14.000244" height="19.999756" viewBox="0 0 14.0002 19.9998" fill="none" xmlns="http://www.w3.org/2000/svg" xmlns:xlink="http://www.w3.org/1999/xlink">
	<defs/>
	<path id="Vector" d="M2.36 0.43L3.43 0.09C4.44 -0.23 5.52 0.29 5.95 1.31L6.81 3.33C7.19 4.22 6.98 5.26 6.3 5.9L4.4 7.7C4.52 8.78 4.88 9.84 5.49 10.88C6.07 11.89 6.84 12.77 7.76 13.47L10.04 12.71C10.9 12.43 11.84 12.76 12.37 13.53L13.6 15.34C14.21 16.25 14.1 17.49 13.34 18.26L12.52 19.08C11.71 19.9 10.55 20.19 9.47 19.86C6.93 19.07 4.6 16.72 2.47 12.81C0.33 8.89 -0.42 5.57 0.21 2.84C0.47 1.69 1.29 0.77 2.36 0.43L2.36 0.43Z" fill="#FFFFFF" fill-opacity="1.000000" fill-rule="nonzero"/>
</svg>
