<svg width="332.000000" height="344.000000" viewBox="0 0 332 344" fill="none" xmlns="http://www.w3.org/2000/svg" xmlns:xlink="http://www.w3.org/1999/xlink">
	<desc>
			Created with Pixso.
	</desc>
	<defs/>
	<path id="Union" d="M240.985 73L312 73C323.046 73 332 81.9541 332 93L332 324C332 335.046 323.046 344 312 344L20 344C8.95435 344 0 335.046 0 324L0 93C0 81.9541 8.95435 73 20 73L92.0148 73C92.8137 32.5474 125.856 0 166.5 0C207.144 0 240.186 32.5474 240.985 73Z" clip-rule="evenodd" fill="#0297D4" fill-opacity="1.000000" fill-rule="evenodd"/>
	<path id="Ellipse 11" d="M201.28 78.85C205.3 71.33 206.69 62.98 205.67 54.97C204.42 45 199.58 36.35 192.61 30.15C185.12 23.46 175.79 20.11 166.46 20.01C156.42 19.88 147.19 23.49 140.08 29.53C132.42 36.04 127.83 44.82 126.45 54.04C125.16 62.56 126.67 70.86 130.28 78.01C131.28 79.98 133.77 80.52 135.63 79.34L138.51 77.5C140.37 76.32 140.89 73.85 139.97 71.84C137.62 66.69 136.92 61.09 137.73 55.74C138.79 48.64 142.4 42.54 147.48 38.22C152.94 33.57 159.67 31.33 166.33 31.41C173.51 31.49 180.05 34.23 185.02 38.66C190.38 43.44 193.52 49.79 194.35 56.41C195.08 62.11 194.06 67.63 191.73 72.45C190.77 74.44 191.23 76.91 193.06 78.14L195.9 80.04C197.73 81.27 200.24 80.79 201.28 78.85Z" fill="#FFFFFF" fill-opacity="1.000000" fill-rule="evenodd"/>
	<path id="Ellipse 12" d="M171.28 73.63C170.39 76.93 167.01 78.88 163.71 78C160.42 77.12 158.46 73.73 159.34 70.43C160.23 67.14 173.19 42.63 173.19 42.63C173.19 42.63 172.16 70.34 171.28 73.63Z" fill="#FFFFFF" fill-opacity="1.000000" fill-rule="nonzero"/>
	<path id="Предполагаемый пробег" d="M216.67 111.21Q217.15 110.42 217.25 109.38L214.55 109.38Q214.45 110.42 213.89 110.81Q213.35 111.2 212.49 111.2Q211.45 111.2 210.98 110.84Q210.52 110.47 210.43 109.38L207.77 109.38Q207.85 110.45 208.27 111.24Q208.3 111.3 208.34 111.36Q208.77 112.05 209.67 112.45Q210.67 112.88 212.43 112.88Q214.15 112.88 215.17 112.44Q216.14 112.02 216.62 111.28Q216.65 111.24 216.67 111.21ZM264.61 112.84Q263.24 114.83 263.24 118.46Q263.24 121.71 264.68 123.46Q265.26 124.16 266.01 124.58Q267.1 125.2 268.54 125.2Q270.12 125.2 271.32 124.57Q271.78 124.33 272.15 124Q272.78 123.47 273.2 122.7Q273.88 121.46 273.88 119.6Q273.88 117.22 272.73 116.02Q272.45 115.72 272.12 115.5Q271.1 114.81 269.62 114.81Q268.8 114.81 268.16 115.08Q267.53 115.34 267.1 115.72Q266.67 116.09 266.43 116.47L266.28 116.47Q266.36 115.12 266.71 114.4Q266.96 113.89 267.37 113.58Q267.53 113.45 267.73 113.35Q268.38 113.02 269.39 112.86Q270.01 112.75 270.79 112.67Q271.58 112.57 272.39 112.48Q273.2 112.37 273.88 112.3L273.54 109.7Q272.38 109.83 271.29 109.97Q270.21 110.09 269.15 110.27Q266.24 110.79 264.84 112.52Q264.72 112.68 264.61 112.84ZM36.63 110.71L36.63 125L39.65 125L39.65 113.24L44.9 113.24L44.9 125L47.93 125L47.93 110.71L36.63 110.71ZM135.22 114.81Q134.05 113.86 131.85 113.86Q130.68 113.86 129.62 114.12Q128.55 114.38 127.67 114.83L128.65 116.86Q129.41 116.51 130.17 116.28Q130.54 116.17 130.93 116.11Q131.32 116.06 131.72 116.06Q132.52 116.06 132.97 116.45Q132.97 116.45 132.97 116.46Q133 116.48 133.02 116.5Q133.43 116.9 133.43 117.72L133.43 118.19L131.52 118.26Q129.09 118.34 127.87 119.17Q127.48 119.43 127.21 119.79Q126.65 120.55 126.65 121.73Q126.65 123.36 127.46 124.2Q127.53 124.28 127.6 124.35Q127.84 124.56 128.12 124.72Q128.93 125.2 130.03 125.2Q131.39 125.2 132.16 124.8Q132.95 124.39 133.65 123.52L133.73 123.52L134.31 125L136.39 125L136.39 117.72Q136.39 116.1 135.59 115.17Q135.42 114.97 135.22 114.81ZM156.86 114.81Q155.69 113.86 153.49 113.86Q152.32 113.86 151.25 114.12Q150.19 114.38 149.31 114.83L150.29 116.86Q151.05 116.51 151.81 116.28Q152.18 116.17 152.57 116.11Q152.96 116.06 153.36 116.06Q154.16 116.06 154.61 116.45Q154.61 116.45 154.61 116.46Q154.64 116.48 154.66 116.5Q155.07 116.9 155.07 117.72L155.07 118.19L153.16 118.26Q150.73 118.34 149.51 119.17Q149.12 119.43 148.85 119.79Q148.29 120.55 148.29 121.73Q148.29 123.36 149.1 124.2Q149.17 124.28 149.24 124.35Q149.48 124.56 149.76 124.72Q150.57 125.2 151.67 125.2Q153.03 125.2 153.8 124.8Q154.59 124.39 155.29 123.52L155.37 123.52L155.95 125L158.03 125L158.03 117.72Q158.03 116.1 157.23 115.17Q157.06 114.97 156.86 114.81ZM59.06 114.25Q58.31 113.88 57.37 113.88Q56.19 113.88 55.44 114.36Q54.71 114.83 54.27 115.49L54.13 115.49L53.71 114.08L51.28 114.08L51.28 129.8L54.27 129.8L54.27 125.4Q54.27 124.63 54.11 123.79L54.27 123.79Q54.71 124.34 55.4 124.77Q56.11 125.2 57.28 125.2Q58.17 125.2 58.9 124.86Q59.69 124.5 60.3 123.75Q61.48 122.3 61.48 119.52Q61.48 116.73 60.35 115.31Q59.79 114.61 59.06 114.25ZM71.57 114.78Q70.33 113.88 68.45 113.88Q66.91 113.88 65.75 114.52Q65.43 114.69 65.15 114.92Q64.41 115.51 63.93 116.43Q63.28 117.7 63.28 119.61Q63.28 121.49 64 122.73Q64.42 123.45 65.01 123.95Q65.45 124.33 65.98 124.59Q67.24 125.2 68.89 125.2Q70.14 125.2 71.03 125.01Q71.76 124.85 72.43 124.56Q72.58 124.49 72.73 124.41L72.73 122.11Q71.81 122.55 70.95 122.76Q70.09 122.97 69.03 122.97Q67.96 122.97 67.29 122.46Q67.16 122.37 67.05 122.26Q66.97 122.17 66.9 122.08Q66.34 121.39 66.31 120.27L73.35 120.27L73.35 118.83Q73.35 116.74 72.32 115.49Q72.18 115.32 72.02 115.17Q71.81 114.95 71.57 114.78ZM110.74 123.54Q112.01 122.08 112.01 119.52Q112.01 117.7 111.33 116.45Q110.88 115.62 110.21 115.05Q109.87 114.76 109.47 114.54Q109.44 114.52 109.41 114.51Q108.25 113.88 106.75 113.88Q104.74 113.88 103.43 114.83Q103.12 115.06 102.85 115.34Q102.78 115.41 102.71 115.49Q101.43 116.93 101.43 119.52Q101.43 121.33 102.1 122.61Q102.57 123.48 103.28 124.07Q103.61 124.33 103.97 124.54Q104.06 124.58 104.15 124.63Q105.27 125.2 106.69 125.2Q108.6 125.2 109.89 124.3Q110.26 124.05 110.58 123.72Q110.66 123.63 110.74 123.54ZM168.71 114.78Q167.48 113.88 165.59 113.88Q164.05 113.88 162.89 114.52Q162.57 114.69 162.29 114.92Q161.55 115.51 161.07 116.43Q160.42 117.7 160.42 119.61Q160.42 121.49 161.14 122.73Q161.56 123.45 162.15 123.95Q162.59 124.33 163.13 124.59Q164.39 125.2 166.03 125.2Q167.29 125.2 168.17 125.01Q168.9 124.85 169.57 124.56Q169.72 124.49 169.87 124.41L169.87 122.11Q168.95 122.55 168.09 122.76Q167.23 122.97 166.17 122.97Q165.1 122.97 164.43 122.46Q164.3 122.37 164.19 122.26Q164.11 122.17 164.04 122.08Q163.48 121.39 163.45 120.27L170.49 120.27L170.49 118.83Q170.49 116.74 169.46 115.49Q169.32 115.32 169.17 115.17Q168.95 114.95 168.71 114.78ZM246.64 114.25Q245.88 113.88 244.95 113.88Q243.76 113.88 243.02 114.36Q242.28 114.83 241.85 115.49L241.7 115.49L241.28 114.08L238.86 114.08L238.86 129.8L241.85 129.8L241.85 125.4Q241.85 124.63 241.68 123.79L241.85 123.79Q242.28 124.34 242.98 124.77Q243.69 125.2 244.86 125.2Q245.75 125.2 246.48 124.86Q247.27 124.5 247.88 123.75Q249.06 122.3 249.06 119.52Q249.06 116.73 247.92 115.31Q247.37 114.61 246.64 114.25ZM260.18 123.54Q261.44 122.08 261.44 119.52Q261.44 117.7 260.76 116.45Q260.32 115.62 259.65 115.05Q259.31 114.76 258.9 114.54Q258.88 114.52 258.85 114.51Q257.69 113.88 256.19 113.88Q254.18 113.88 252.87 114.83Q252.56 115.06 252.28 115.34Q252.21 115.41 252.15 115.49Q250.86 116.93 250.86 119.52Q250.86 121.33 251.54 122.61Q252.01 123.48 252.72 124.07Q253.04 124.33 253.41 124.54Q253.5 124.58 253.58 124.63Q254.71 125.2 256.13 125.2Q258.04 125.2 259.32 124.3Q259.69 124.05 260.01 123.72Q260.1 123.63 260.18 123.54ZM283.96 114.78Q282.73 113.88 280.84 113.88Q279.31 113.88 278.14 114.52Q277.82 114.69 277.54 114.92Q276.81 115.51 276.33 116.43Q275.68 117.7 275.68 119.61Q275.68 121.49 276.4 122.73Q276.82 123.45 277.41 123.95Q277.85 124.33 278.38 124.59Q279.64 125.2 281.28 125.2Q282.54 125.2 283.43 125.01Q284.16 124.85 284.82 124.56Q284.98 124.49 285.13 124.41L285.13 122.11Q284.2 122.55 283.34 122.76Q282.48 122.97 281.43 122.97Q280.36 122.97 279.68 122.46Q279.56 122.37 279.45 122.26Q279.37 122.17 279.3 122.08Q278.74 121.39 278.71 120.27L285.75 120.27L285.75 118.83Q285.75 116.74 284.72 115.49Q284.58 115.32 284.42 115.17Q284.21 114.95 283.96 114.78ZM85.59 122.82L85.59 114.08L77.87 114.08Q77.86 114.13 77.86 114.18Q77.72 115.75 77.42 117.3Q77.13 118.9 76.62 120.31Q76.13 121.71 75.41 122.82L74.48 122.82L74.48 128.92L77.17 128.92L77.17 125L84.5 125L84.5 128.92L87.18 128.92L87.18 122.82L85.59 122.82ZM98.97 125L98.97 114.08L89.04 114.08L89.04 125L92.03 125L92.03 116.31L95.99 116.31L95.99 125L98.97 125ZM121.27 125L124.24 125L124.24 114.08L115.99 114.08Q115.81 116.71 115.59 118.4Q115.37 120.09 115.09 121.04Q114.83 121.98 114.52 122.34Q114.27 122.64 113.98 122.69Q113.93 122.7 113.87 122.7Q113.6 122.7 113.35 122.64Q113.12 122.59 112.91 122.5L112.91 124.87Q113.57 125.2 114.61 125.2Q115.41 125.2 116 124.85Q116.36 124.64 116.65 124.31Q117.41 123.41 117.84 121.47Q118.27 119.52 118.53 116.31L121.27 116.31L121.27 125ZM146.99 116.31L146.99 114.08L139.44 114.08L139.44 125L142.43 125L142.43 116.31L146.99 116.31ZM186.67 125L186.67 114.08L182.61 114.08L179.85 121.47L177.13 114.08L172.9 114.08L172.9 125L175.69 125L175.69 119.72Q175.69 118.81 175.66 118.07Q175.63 117.31 175.55 116.66L175.63 116.66L178.69 125L180.93 125L183.94 116.68L184.01 116.68Q183.94 117.31 183.91 118.08Q183.89 118.83 183.89 119.63L183.89 125L186.67 125ZM189.78 114.08L189.78 125L194.31 125Q196.86 125 197.98 124.05Q198.43 123.67 198.7 123.19Q199.11 122.46 199.11 121.51Q199.11 120.5 198.64 119.81Q198.35 119.4 197.9 119.1Q196.71 118.3 194.21 118.3L192.77 118.3L192.77 114.08L189.78 114.08ZM200.69 114.08L200.69 125L203.67 125L203.67 114.08L200.69 114.08ZM209.64 119.24Q209.67 118.74 209.67 118.39L209.67 114.08L206.78 114.08L206.78 125L210.37 125L215.39 117.35Q215.37 117.66 215.31 118.23Q215.27 118.79 215.23 119.44Q215.19 120.09 215.19 120.64L215.19 125L218.07 125L218.07 114.08L214.48 114.08L209.45 121.73Q209.46 121.58 209.5 121.18Q209.55 120.78 209.58 120.26Q209.61 119.74 209.64 119.24ZM235.74 125L235.74 114.08L225.82 114.08L225.82 125L228.81 125L228.81 116.31L232.77 116.31L232.77 125L235.74 125ZM295.71 116.31L295.71 114.08L288.16 114.08L288.16 125L291.15 125L291.15 116.31L295.71 116.31ZM67.51 116.21Q67.93 116 68.47 116Q69.32 116 69.81 116.42Q69.93 116.52 70.02 116.65Q70.04 116.67 70.06 116.7Q70.53 117.34 70.55 118.3L66.37 118.3Q66.47 117.11 67.03 116.56Q67.25 116.35 67.51 116.21ZM164.65 116.21Q165.07 116 165.61 116Q166.46 116 166.95 116.42Q167.07 116.52 167.16 116.65Q167.18 116.67 167.2 116.7Q167.67 117.34 167.69 118.3L163.51 118.3Q163.61 117.11 164.18 116.56Q164.39 116.35 164.65 116.21ZM279.91 116.21Q280.33 116 280.86 116Q281.72 116 282.21 116.42Q282.32 116.52 282.42 116.65Q282.44 116.67 282.46 116.7Q282.92 117.34 282.94 118.3L278.76 118.3Q278.87 117.11 279.43 116.56Q279.65 116.35 279.91 116.21ZM54.99 116.72Q55.47 116.26 56.41 116.26Q56.99 116.26 57.41 116.52Q58.45 117.18 58.45 119.48Q58.45 121.07 57.95 121.92Q57.73 122.31 57.39 122.53Q57 122.77 56.44 122.77Q55.54 122.77 55.05 122.33Q54.86 122.16 54.74 121.92Q54.27 121.07 54.27 119.5L54.27 119.18Q54.31 117.7 54.77 116.98Q54.87 116.84 54.99 116.72ZM242.56 116.72Q243.05 116.26 243.98 116.26Q244.57 116.26 244.99 116.52Q246.03 117.18 246.03 119.48Q246.03 121.07 245.53 121.92Q245.31 122.31 244.97 122.53Q244.57 122.77 244.02 122.77Q243.12 122.77 242.63 122.33Q242.44 122.16 242.31 121.92Q241.85 121.07 241.85 119.5L241.85 119.18Q241.88 117.7 242.35 116.98Q242.45 116.84 242.56 116.72ZM104.99 121.96Q104.47 121.13 104.47 119.52Q104.47 117.9 104.99 117.09Q105.15 116.85 105.36 116.68Q105.87 116.27 106.71 116.27Q107.57 116.27 108.09 116.7Q108.29 116.86 108.44 117.09Q108.97 117.9 108.97 119.52Q108.97 121.13 108.44 121.96Q108.27 122.22 108.04 122.4Q107.54 122.79 106.73 122.79Q105.88 122.79 105.36 122.38Q105.15 122.21 104.99 121.96ZM254.43 121.96Q253.9 121.13 253.9 119.52Q253.9 117.9 254.43 117.09Q254.59 116.85 254.79 116.68Q255.31 116.27 256.15 116.27Q257.01 116.27 257.53 116.7Q257.73 116.86 257.87 117.09Q258.41 117.9 258.41 119.52Q258.41 121.13 257.87 121.96Q257.71 122.22 257.48 122.4Q256.97 122.79 256.17 122.79Q255.32 122.79 254.8 122.38Q254.59 122.21 254.43 121.96ZM79.7 119.77Q80.12 118.14 80.37 116.31L82.6 116.31L82.6 122.82L78.53 122.82Q79.28 121.4 79.7 119.77ZM269.75 122.53Q269.3 122.77 268.73 122.77Q268.01 122.77 267.54 122.44Q267.38 122.33 267.25 122.19Q266.72 121.6 266.5 120.66Q266.28 119.72 266.28 118.7Q266.43 118.41 266.8 118.03Q267.18 117.64 267.74 117.33Q267.99 117.18 268.27 117.11Q268.59 117.02 268.93 117.02Q269.64 117.02 270.07 117.37Q270.28 117.54 270.42 117.79Q270.85 118.56 270.85 119.85Q270.85 121.49 270.25 122.13Q270.03 122.38 269.75 122.53ZM130.26 120.5Q130.83 120.02 132.27 119.98L133.43 119.94L133.43 120.84Q133.43 121.6 133.07 122.11Q132.94 122.3 132.76 122.45Q132.56 122.62 132.34 122.74Q131.81 123.01 131.15 123.01Q130.51 123.01 130.11 122.72Q130.05 122.68 130 122.63Q129.71 122.34 129.71 121.75Q129.71 121.3 129.89 120.95Q130.03 120.7 130.26 120.5ZM151.9 120.5Q152.47 120.02 153.91 119.98L155.07 119.94L155.07 120.84Q155.07 121.6 154.71 122.11Q154.58 122.3 154.4 122.45Q154.2 122.62 153.98 122.74Q153.45 123.01 152.79 123.01Q152.15 123.01 151.75 122.72Q151.69 122.68 151.64 122.63Q151.35 122.34 151.35 121.75Q151.35 121.3 151.53 120.95Q151.67 120.7 151.9 120.5ZM195.58 122.62Q195.03 122.93 194.14 122.93L192.77 122.93L192.77 120.36L194.11 120.36Q195.6 120.36 195.99 121.01Q196.13 121.24 196.13 121.55Q196.13 122.03 195.9 122.34Q195.77 122.5 195.58 122.62Z" fill="#FFFFFF" fill-opacity="1.000000" fill-rule="evenodd"/>
	<path id="Учитывается удаленность стоянки эвакуатора от местоположения ТС, расстояние между пунктами погрузки в Москве и выгрузки авто" d="M54.19 162.47Q54.78 161.62 55.35 160.34L59.46 151.14L57.75 151.14L54.65 158.27Q54.58 158.45 54.47 158.73Q54.36 159.01 54.29 159.21L54.22 159.21Q54.13 158.95 54 158.68Q53.88 158.4 53.79 158.22L50.21 151.14L48.42 151.14L53.37 160.7Q52.87 161.8 52.29 162.23Q51.7 162.66 50.69 162.66Q50.24 162.66 49.83 162.57Q49.41 162.47 49.05 162.3L49.05 163.91Q49.41 164.03 49.85 164.1Q50.3 164.18 50.8 164.18Q52.02 164.18 52.81 163.75Q53.61 163.33 54.19 162.47ZM132.13 154.71Q131.24 154.17 130 154.17Q128.91 154.17 128.04 154.62Q127.9 154.69 127.76 154.78Q127.56 154.91 127.38 155.06Q126.69 155.63 126.26 156.52Q125.73 157.66 125.73 159.25Q125.73 160.84 126.32 161.95Q126.7 162.68 127.28 163.17Q127.59 163.42 127.96 163.62Q129.01 164.18 130.38 164.18Q131.37 164.18 132.09 164.02Q132.81 163.87 133.55 163.55L133.55 162.16Q132.79 162.48 132.08 162.66Q131.37 162.83 130.45 162.83Q129.29 162.83 128.54 162.27Q128.36 162.14 128.21 161.97Q127.41 161.12 127.37 159.48L133.98 159.48L133.98 158.52Q133.98 157.21 133.5 156.23Q133.19 155.59 132.71 155.14Q132.45 154.9 132.13 154.71ZM146.4 163.65Q147.41 164.18 148.68 164.18Q149.51 164.18 150.1 164.04Q150.68 163.91 151.17 163.65L151.17 162.25Q150.66 162.48 150.06 162.65Q149.46 162.81 148.67 162.81Q147.7 162.81 147.07 162.35Q146.81 162.16 146.6 161.88Q145.91 160.95 145.91 159.21Q145.91 156.93 147.01 156.07Q147.68 155.55 148.75 155.55Q149.26 155.55 149.84 155.7Q150.41 155.84 150.84 156L151.33 154.69Q150.9 154.47 150.21 154.32Q149.53 154.17 148.79 154.17Q147.49 154.17 146.48 154.69Q146.26 154.8 146.06 154.94Q145.34 155.45 144.87 156.33Q144.27 157.44 144.27 159.23Q144.27 160.94 144.84 162.03Q145.26 162.85 145.92 163.35Q146.15 163.52 146.4 163.65ZM214.22 154.71Q213.33 154.17 212.08 154.17Q210.99 154.17 210.13 154.62Q209.98 154.69 209.84 154.78Q209.64 154.91 209.46 155.06Q208.77 155.63 208.35 156.52Q207.82 157.66 207.82 159.25Q207.82 160.84 208.4 161.95Q208.79 162.68 209.37 163.17Q209.68 163.42 210.04 163.62Q211.1 164.18 212.46 164.18Q213.45 164.18 214.17 164.02Q214.89 163.87 215.63 163.55L215.63 162.16Q214.87 162.48 214.16 162.66Q213.45 162.83 212.53 162.83Q211.37 162.83 210.63 162.27Q210.45 162.14 210.29 161.97Q209.49 161.12 209.46 159.48L216.06 159.48L216.06 158.52Q216.06 157.21 215.58 156.23Q215.27 155.59 214.79 155.14Q214.53 154.9 214.22 154.71ZM248.67 162.8Q249.83 161.49 249.83 159.15Q249.83 157.55 249.26 156.45Q248.86 155.65 248.22 155.12Q247.98 154.92 247.7 154.75Q247.64 154.72 247.58 154.69Q246.62 154.17 245.38 154.17Q243.86 154.17 242.8 154.87Q242.42 155.12 242.11 155.47Q242.09 155.48 242.08 155.49Q240.9 156.78 240.9 159.15Q240.9 160.76 241.48 161.88Q241.92 162.75 242.63 163.3Q242.83 163.46 243.05 163.59Q243.2 163.68 243.36 163.76Q244.25 164.18 245.33 164.18Q246.82 164.18 247.87 163.49Q248.27 163.23 248.61 162.86Q248.64 162.83 248.67 162.8ZM253.92 163.65Q254.92 164.18 256.2 164.18Q257.03 164.18 257.61 164.04Q258.2 163.91 258.69 163.65L258.69 162.25Q258.18 162.48 257.58 162.65Q256.98 162.81 256.19 162.81Q255.22 162.81 254.59 162.35Q254.33 162.16 254.12 161.88Q253.43 160.95 253.43 159.21Q253.43 156.93 254.53 156.07Q255.2 155.55 256.27 155.55Q256.78 155.55 257.35 155.7Q257.93 155.84 258.36 156L258.85 154.69Q258.42 154.47 257.73 154.32Q257.05 154.17 256.31 154.17Q255.01 154.17 254 154.69Q253.78 154.8 253.58 154.94Q252.85 155.45 252.38 156.33Q251.79 157.44 251.79 159.23Q251.79 160.94 252.36 162.03Q252.78 162.85 253.44 163.35Q253.67 163.52 253.92 163.65ZM122.44 154.96Q121.59 154.19 119.83 154.19Q118.9 154.19 118.03 154.43Q117.16 154.67 116.54 155.01L117.02 156.2Q117.62 155.91 118.3 155.69Q118.35 155.67 118.39 155.66Q119.04 155.46 119.74 155.46Q120.69 155.46 121.22 155.93Q121.74 156.4 121.74 157.61L121.74 158.18L120.1 158.23Q117.74 158.31 116.61 159.09Q116.1 159.44 115.82 159.92Q115.47 160.52 115.47 161.31Q115.47 162.57 116.1 163.26Q116.21 163.38 116.34 163.49Q116.45 163.58 116.57 163.65Q117.37 164.18 118.52 164.18Q119.74 164.18 120.43 163.8Q121.13 163.42 121.76 162.63L121.83 162.63L122.13 164L123.29 164L123.29 157.42Q123.29 155.74 122.45 154.97Q122.44 154.96 122.44 154.96ZM194.12 154.96Q193.27 154.19 191.51 154.19Q190.58 154.19 189.71 154.43Q188.84 154.67 188.22 155.01L188.7 156.2Q189.3 155.91 189.98 155.69Q190.03 155.67 190.08 155.66Q190.72 155.46 191.42 155.46Q192.37 155.46 192.9 155.93Q193.42 156.4 193.42 157.61L193.42 158.18L191.78 158.23Q189.42 158.31 188.29 159.09Q187.78 159.44 187.5 159.92Q187.15 160.52 187.15 161.31Q187.15 162.57 187.78 163.26Q187.89 163.38 188.02 163.49Q188.13 163.58 188.25 163.65Q189.05 164.18 190.2 164.18Q191.42 164.18 192.11 163.8Q192.81 163.42 193.44 162.63L193.51 162.63L193.81 164L194.97 164L194.97 157.42Q194.97 155.74 194.13 154.97L194.12 154.96ZM62.38 159Q62.02 158.59 62.02 157.86L62.02 154.35L60.43 154.35L60.43 157.97Q60.43 158.9 60.85 159.56Q61.02 159.82 61.25 160.04Q61.29 160.08 61.34 160.12Q62.15 160.81 63.54 160.81Q64.64 160.81 65.43 160.52Q66.21 160.22 67.02 159.69L67.02 164L68.6 164L68.6 154.35L67.02 154.35L67.02 158.49Q66.24 158.95 65.5 159.24Q64.77 159.51 63.87 159.51Q62.84 159.51 62.38 159ZM73.14 160.88Q73.16 160.45 73.16 160.23L73.16 154.35L71.66 154.35L71.66 164L73.63 164L78.75 155.93Q78.74 156.16 78.72 156.63Q78.7 157.08 78.69 157.55Q78.68 158.02 78.68 158.31L78.68 164L80.16 164L80.16 154.35L78.21 154.35L73.05 162.43Q73.07 162.18 73.09 161.75Q73.12 161.31 73.14 160.88ZM86.75 155.68L89.9 155.68L89.9 154.35L82.07 154.35L82.07 155.68L85.18 155.68L85.18 164L86.75 164L86.75 155.68ZM91.8 154.35L91.8 164L95.82 164Q97.8 164 98.68 163.2Q98.96 162.94 99.15 162.63Q99.56 161.96 99.56 161.04Q99.56 160.04 99.08 159.41Q98.9 159.18 98.66 158.99Q97.76 158.31 95.89 158.31L93.39 158.31L93.39 154.35L91.8 154.35ZM101.16 154.35L101.16 164L102.75 164L102.75 154.35L101.16 154.35ZM113.23 157.95Q113.57 157.49 113.57 156.78Q113.57 155.92 113.15 155.4Q113.12 155.36 113.09 155.33Q113.09 155.33 113.08 155.32Q112.6 154.8 111.79 154.57Q110.98 154.35 109.95 154.35L105.81 154.35L105.81 164L109.96 164Q112.05 164 112.96 163.2Q113.41 162.8 113.64 162.31Q113.87 161.79 113.87 161.17Q113.87 160.31 113.44 159.81Q113.34 159.68 113.2 159.58Q113.07 159.48 112.93 159.39Q112.36 159.04 111.64 158.94L111.64 158.87Q112.49 158.69 113.03 158.18Q113.14 158.07 113.23 157.95ZM139.94 155.68L143.09 155.68L143.09 154.35L135.26 154.35L135.26 155.68L138.37 155.68L138.37 164L139.94 164L139.94 155.68ZM152.21 164L154.05 164L156.53 160.16L158.87 160.16L158.87 164L160.46 164L160.46 154.35L156.13 154.35Q154.59 154.35 153.65 155.08Q153.37 155.3 153.17 155.57Q152.72 156.22 152.72 157.19Q152.72 158.04 153.04 158.6Q153.3 159.05 153.67 159.34Q153.78 159.42 153.88 159.49Q154.41 159.8 154.97 159.94L152.21 164ZM168.76 154.35L167.07 154.35L170.96 164.03L170.45 165.31Q170.16 166.08 169.65 166.55Q169.55 166.64 169.44 166.71Q168.98 167.02 168.31 167.02Q168 167.02 167.72 166.98Q167.44 166.95 167.25 166.91L167.25 168.17Q167.48 168.23 167.8 168.27Q168.13 168.32 168.56 168.32Q169.73 168.32 170.48 167.76Q170.63 167.64 170.77 167.5Q171.57 166.69 172.07 165.33L176.23 154.35L174.52 154.35L172.55 159.82Q172.3 160.56 172.07 161.29Q171.84 162.01 171.73 162.47L171.66 162.47Q171.55 161.87 171.33 161.22Q171.12 160.56 170.85 159.84L168.76 154.35ZM184.56 162.66L184.56 154.35L179.49 154.35Q179.48 154.82 179.45 155.3Q179.34 157.04 178.85 158.77Q178.23 160.95 176.98 162.66L176.21 162.66L176.21 167.34L177.72 167.34L177.72 164L184.44 164L184.44 167.34L185.97 167.34L185.97 162.66L184.56 162.66ZM203.7 164L205.3 164L205.3 154.35L199.48 154.35Q199.18 158.74 198.59 160.81Q198.06 162.7 197.2 162.86Q197.12 162.88 197.04 162.88Q196.91 162.88 196.78 162.86Q196.66 162.84 196.55 162.81L196.55 164Q196.69 164.07 196.92 164.09Q197.15 164.12 197.38 164.12Q197.85 164.12 198.25 163.95Q198.73 163.74 199.11 163.28Q199.79 162.43 200.2 160.57Q200.62 158.7 200.85 155.66L203.7 155.66L203.7 164ZM220.1 158.36L220.1 154.35L218.51 154.35L218.51 164L220.1 164L220.1 159.69L225.33 159.69L225.33 164L226.92 164L226.92 154.35L225.33 154.35L225.33 158.36L220.1 158.36ZM231.56 158.36L231.56 154.35L229.98 154.35L229.98 164L231.56 164L231.56 159.69L236.8 159.69L236.8 164L238.38 164L238.38 154.35L236.8 154.35L236.8 158.36L231.56 158.36ZM264.48 155.68L267.63 155.68L267.63 154.35L259.8 154.35L259.8 155.68L262.92 155.68L262.92 164L264.48 164L264.48 155.68ZM277.3 159.48Q276.45 158.31 273.99 158.31L271.13 158.31L271.13 154.35L269.54 154.35L269.54 164L273.91 164Q275.91 164 276.83 163.2Q277.16 162.91 277.37 162.56Q277.75 161.91 277.75 161.04Q277.75 160.1 277.3 159.48ZM128.61 155.83Q129.18 155.46 129.98 155.46Q130.91 155.46 131.46 155.92Q131.62 156.05 131.74 156.23Q132.3 157 132.32 158.22L127.41 158.22Q127.53 156.92 128.19 156.19Q128.38 155.98 128.61 155.83ZM210.7 155.83Q211.26 155.46 212.07 155.46Q213 155.46 213.54 155.92Q213.7 156.05 213.83 156.23Q214.39 157 214.4 158.22L209.49 158.22Q209.62 156.92 210.27 156.19Q210.46 155.98 210.7 155.83ZM243.21 161.86Q242.54 160.86 242.54 159.15Q242.54 157.44 243.2 156.47Q243.37 156.23 243.59 156.04Q244.24 155.5 245.35 155.5Q246.45 155.5 247.11 156.04Q247.33 156.22 247.51 156.47Q248.19 157.44 248.19 159.15Q248.19 160.86 247.51 161.86Q247.31 162.15 247.04 162.36Q246.4 162.86 245.37 162.86Q244.3 162.86 243.65 162.34Q243.4 162.14 243.21 161.86ZM180.51 158.12Q180.82 156.81 180.89 155.59L183.03 155.59L183.03 162.66L178.62 162.66Q179.25 161.8 179.73 160.61Q180.21 159.42 180.51 158.12ZM111.75 156.23Q111.96 156.52 111.96 156.98Q111.96 157.29 111.83 157.53Q111.4 158.31 109.57 158.31L107.39 158.31L107.39 155.66L109.86 155.66Q110.98 155.66 111.47 155.98Q111.63 156.08 111.75 156.23ZM154.48 158.07Q154.24 157.72 154.24 157.21Q154.24 156.8 154.42 156.48Q154.53 156.27 154.72 156.09Q155.2 155.66 156.3 155.66L158.87 155.66L158.87 158.85L156.6 158.85Q155.49 158.85 154.86 158.45Q154.63 158.29 154.48 158.07ZM117.81 159.91Q118.5 159.41 120.3 159.33L121.72 159.28L121.72 160.14Q121.72 161.35 121.12 162.02Q121.02 162.13 120.91 162.22Q120.75 162.35 120.59 162.46Q119.87 162.9 118.88 162.9Q118.11 162.9 117.62 162.53Q117.61 162.52 117.6 162.52Q117.51 162.45 117.44 162.36Q117.11 161.99 117.11 161.33Q117.11 160.8 117.35 160.4Q117.52 160.12 117.81 159.91ZM189.49 159.91Q190.18 159.41 191.98 159.33L193.4 159.28L193.4 160.14Q193.4 161.35 192.8 162.02Q192.7 162.13 192.59 162.22Q192.44 162.35 192.27 162.46Q191.55 162.9 190.56 162.9Q189.79 162.9 189.3 162.53Q189.29 162.52 189.28 162.52Q189.19 162.45 189.12 162.36Q188.79 161.99 188.79 161.33Q188.79 160.8 189.03 160.4Q189.2 160.12 189.49 159.91ZM97.34 162.37Q96.7 162.72 95.67 162.72L93.39 162.72L93.39 159.62L95.69 159.62Q96.81 159.62 97.4 159.94Q97.55 160.02 97.67 160.14Q97.99 160.48 97.99 161.13Q97.99 161.72 97.71 162.07Q97.56 162.25 97.34 162.37ZM111.98 160.31Q112.23 160.65 112.23 161.17Q112.23 161.72 111.97 162.06Q111.82 162.24 111.6 162.37Q110.98 162.72 109.78 162.72L107.39 162.72L107.39 159.62L109.75 159.62Q110.98 159.62 111.6 159.98Q111.84 160.12 111.98 160.31ZM275.85 160.17Q276.16 160.51 276.16 161.13Q276.16 161.68 275.9 162.02Q275.75 162.22 275.5 162.36Q274.85 162.72 273.84 162.72L271.13 162.72L271.13 159.62L273.81 159.62Q274.92 159.62 275.54 159.94Q275.72 160.03 275.85 160.17ZM79.48 188.65Q80.48 189.18 81.76 189.18Q82.59 189.18 83.17 189.04Q83.76 188.91 84.24 188.65L84.24 187.25Q83.74 187.48 83.14 187.65Q82.53 187.81 81.74 187.81Q80.78 187.81 80.15 187.35Q79.88 187.16 79.68 186.88Q78.99 185.95 78.99 184.21Q78.99 181.93 80.09 181.07Q80.76 180.55 81.83 180.55Q82.34 180.55 82.91 180.7Q83.49 180.84 83.92 181L84.41 179.69Q83.98 179.47 83.29 179.32Q82.6 179.17 81.87 179.17Q80.57 179.17 79.55 179.69Q79.34 179.8 79.14 179.94Q78.41 180.45 77.94 181.33Q77.35 182.44 77.35 184.23Q77.35 185.94 77.92 187.04Q78.34 187.85 79 188.35Q79.22 188.52 79.48 188.65ZM102.14 187.8Q103.31 186.49 103.31 184.15Q103.31 182.55 102.74 181.45Q102.33 180.65 101.7 180.12Q101.45 179.92 101.17 179.75Q101.11 179.72 101.05 179.69Q100.1 179.17 98.86 179.17Q97.34 179.17 96.28 179.87Q95.9 180.12 95.58 180.47Q95.57 180.48 95.56 180.49Q94.38 181.78 94.38 184.15Q94.38 185.76 94.95 186.88Q95.4 187.76 96.1 188.3Q96.3 188.46 96.53 188.59Q96.68 188.68 96.84 188.76Q97.72 189.18 98.81 189.18Q100.3 189.18 101.35 188.49Q101.75 188.23 102.09 187.86Q102.12 187.83 102.14 187.8ZM153.61 189.04Q154.21 189.18 155.04 189.18Q156.45 189.18 157.54 188.64Q157.93 188.45 158.26 188.19Q158.85 187.71 159.25 187Q159.87 185.88 159.87 184.17Q159.87 182.37 159.28 181.27Q158.87 180.51 158.25 180.03Q157.97 179.83 157.66 179.67Q156.63 179.17 155.28 179.17Q154.56 179.17 153.84 179.33Q153.12 179.49 152.59 179.73L153.05 181Q153.53 180.82 154.15 180.68Q154.77 180.54 155.3 180.54Q156.66 180.54 157.37 181.22L157.37 181.22Q158.09 181.9 158.21 183.38L153.48 183.38L153.48 184.68L158.23 184.68Q158.14 186.31 157.31 187.07Q157.22 187.15 157.13 187.22Q156.33 187.83 155.08 187.83Q154.28 187.83 153.66 187.66Q153.03 187.5 152.49 187.29L152.49 188.65Q153.01 188.91 153.61 189.04ZM227.27 187.8Q228.43 186.49 228.43 184.15Q228.43 182.55 227.86 181.45Q227.45 180.65 226.82 180.12Q226.58 179.92 226.29 179.75Q226.23 179.72 226.17 179.69Q225.22 179.17 223.98 179.17Q222.46 179.17 221.4 179.87Q221.02 180.12 220.7 180.47Q220.69 180.48 220.68 180.49Q219.5 181.78 219.5 184.15Q219.5 185.76 220.07 186.88Q220.52 187.76 221.22 188.3Q221.43 188.46 221.65 188.59Q221.8 188.68 221.96 188.76Q222.85 189.18 223.93 189.18Q225.42 189.18 226.47 188.49Q226.87 188.23 227.21 187.86Q227.24 187.83 227.27 187.8ZM237.43 179.63Q236.6 179.17 235.52 179.17Q234.35 179.17 233.65 179.6Q233.02 179.98 232.61 180.53Q232.56 180.59 232.52 180.66L232.44 180.66L232.23 179.35L230.93 179.35L230.93 193.32L232.52 193.32L232.52 189.36Q232.52 189.01 232.48 188.55Q232.44 188.08 232.41 187.77L232.52 187.77Q232.93 188.33 233.66 188.75Q234.39 189.18 235.5 189.18Q236.57 189.18 237.39 188.72Q237.95 188.41 238.39 187.9Q239.48 186.62 239.48 184.15Q239.48 181.65 238.39 180.41Q237.96 179.92 237.43 179.63ZM179.02 179.96Q178.17 179.19 176.41 179.19Q175.47 179.19 174.61 179.43Q173.74 179.67 173.11 180.01L173.6 181.2Q174.2 180.91 174.88 180.69Q174.92 180.67 174.97 180.66Q175.62 180.46 176.32 180.46Q177.27 180.46 177.79 180.93Q178.32 181.4 178.32 182.61L178.32 183.18L176.68 183.23Q174.32 183.31 173.18 184.09Q172.68 184.44 172.4 184.92Q172.05 185.52 172.05 186.31Q172.05 187.57 172.67 188.26Q172.79 188.38 172.92 188.49Q173.03 188.58 173.15 188.65Q173.95 189.18 175.1 189.18Q176.32 189.18 177.01 188.8Q177.71 188.42 178.33 187.63L178.41 187.63L178.71 189L179.86 189L179.86 182.43Q179.86 180.74 179.03 179.97L179.02 179.96ZM207.82 179.96Q206.97 179.19 205.21 179.19Q204.27 179.19 203.41 179.43Q202.54 179.67 201.91 180.01L202.4 181.2Q203 180.91 203.68 180.69Q203.72 180.67 203.77 180.66Q204.42 180.46 205.12 180.46Q206.07 180.46 206.59 180.93Q207.12 181.4 207.12 182.61L207.12 183.18L205.48 183.23Q203.12 183.31 201.98 184.09Q201.48 184.44 201.2 184.92Q200.85 185.52 200.85 186.31Q200.85 187.57 201.47 188.26Q201.59 188.38 201.72 188.49Q201.83 188.58 201.95 188.65Q202.75 189.18 203.9 189.18Q205.12 189.18 205.81 188.8Q206.51 188.42 207.13 187.63L207.21 187.63L207.51 189L208.66 189L208.66 182.43Q208.66 180.74 207.83 179.97L207.82 179.96ZM248.26 179.96Q247.42 179.19 245.66 179.19Q244.72 179.19 243.85 179.43Q242.99 179.67 242.36 180.01L242.85 181.2Q243.44 180.91 244.12 180.69Q244.17 180.67 244.22 180.66Q244.86 180.46 245.56 180.46Q246.52 180.46 247.04 180.93Q247.56 181.4 247.56 182.61L247.56 183.18L245.92 183.23Q243.57 183.31 242.43 184.09Q241.92 184.44 241.64 184.92Q241.3 185.52 241.3 186.31Q241.3 187.57 241.92 188.26Q242.03 188.38 242.16 188.49Q242.27 188.58 242.39 188.65Q243.2 189.18 244.34 189.18Q245.56 189.18 246.26 188.8Q246.95 188.42 247.58 187.63L247.65 187.63L247.96 189L249.11 189L249.11 182.43Q249.11 180.74 248.27 179.97L248.26 179.96ZM90.04 180.68L93.19 180.68L93.19 179.35L85.36 179.35L85.36 180.68L88.48 180.68L88.48 189L90.04 189L90.04 180.68ZM104.57 189L106.4 189L108.89 185.16L111.23 185.16L111.23 189L112.81 189L112.81 179.35L108.49 179.35Q106.94 179.35 106.01 180.08Q105.72 180.3 105.53 180.57Q105.07 181.22 105.07 182.19Q105.07 183.04 105.39 183.6Q105.65 184.05 106.03 184.34Q106.13 184.42 106.24 184.49Q106.76 184.8 107.32 184.94L104.57 189ZM117.46 183.36L117.46 179.35L115.87 179.35L115.87 189L117.46 189L117.46 184.69L122.69 184.69L122.69 189L124.28 189L124.28 179.35L122.69 179.35L122.69 183.36L117.46 183.36ZM134.77 179.35L133.04 179.35L128.92 184.03L128.92 179.35L127.34 179.35L127.34 189L128.92 189L128.92 184.1L133.28 189L135.11 189L130.65 183.99L134.77 179.35ZM138.33 185.88Q138.35 185.45 138.35 185.23L138.35 179.35L136.86 179.35L136.86 189L138.82 189L143.95 180.93Q143.93 181.16 143.91 181.63Q143.9 182.08 143.89 182.55Q143.88 183.02 143.88 183.31L143.88 189L145.35 189L145.35 179.35L143.41 179.35L138.25 187.43Q138.26 187.18 138.29 186.75Q138.32 186.31 138.33 185.88ZM169.81 182.95Q170.15 182.49 170.15 181.78Q170.15 180.92 169.73 180.4Q169.7 180.36 169.67 180.33L169.66 180.32Q169.18 179.8 168.37 179.57Q167.55 179.35 166.53 179.35L162.39 179.35L162.39 189L166.54 189Q168.63 189 169.54 188.2Q169.99 187.8 170.21 187.31Q170.45 186.79 170.45 186.17Q170.45 185.31 170.02 184.81Q169.92 184.68 169.78 184.58Q169.65 184.48 169.51 184.39Q168.94 184.04 168.22 183.94L168.22 183.87Q169.07 183.69 169.61 183.18Q169.72 183.07 169.81 182.95ZM190.29 179.35L188.56 179.35L184.44 184.03L184.44 179.35L182.85 179.35L182.85 189L184.44 189L184.44 184.1L188.79 189L190.63 189L186.17 183.99L190.29 179.35ZM192.55 179.35L190.86 179.35L194.75 189.03L194.25 190.31Q193.96 191.08 193.45 191.55Q193.35 191.64 193.24 191.71Q192.77 192.02 192.11 192.02Q191.8 192.02 191.52 191.98Q191.24 191.95 191.04 191.91L191.04 193.17Q191.28 193.23 191.6 193.27Q191.93 193.32 192.36 193.32Q193.52 193.32 194.27 192.76Q194.43 192.64 194.56 192.5Q195.36 191.69 195.87 190.33L200.02 179.35L198.32 179.35L196.35 184.82Q196.1 185.56 195.87 186.29Q195.63 187.01 195.52 187.47L195.45 187.47Q195.34 186.87 195.13 186.22Q194.91 185.56 194.64 184.84L192.55 179.35ZM215.16 180.68L218.31 180.68L218.31 179.35L210.48 179.35L210.48 180.68L213.6 180.68L213.6 189L215.16 189L215.16 180.68ZM96.69 186.86Q96.02 185.86 96.02 184.15Q96.02 182.44 96.68 181.47Q96.85 181.23 97.07 181.04Q97.72 180.5 98.82 180.5Q99.92 180.5 100.58 181.04Q100.81 181.22 100.98 181.47Q101.67 182.44 101.67 184.15Q101.67 185.86 100.98 186.86Q100.78 187.15 100.52 187.36Q99.88 187.86 98.84 187.86Q97.77 187.86 97.13 187.34Q96.88 187.14 96.69 186.86ZM221.81 186.86Q221.14 185.86 221.14 184.15Q221.14 182.44 221.8 181.47Q221.97 181.23 222.19 181.04Q222.84 180.5 223.95 180.5Q225.05 180.5 225.71 181.04Q225.93 181.22 226.1 181.47Q226.79 182.44 226.79 184.15Q226.79 185.86 226.1 186.86Q225.91 187.15 225.64 187.36Q225 187.86 223.96 187.86Q222.9 187.86 222.25 187.34Q222 187.14 221.81 186.86ZM233.3 181.16Q233.92 180.5 235.23 180.5Q236.08 180.5 236.64 180.9Q236.97 181.13 237.2 181.49Q237.84 182.48 237.84 184.14Q237.84 185.22 237.56 186.06Q237.28 186.89 236.72 187.38Q236.63 187.46 236.52 187.52Q236.01 187.86 235.27 187.86Q233.97 187.86 233.34 187.21Q233.21 187.07 233.1 186.9Q232.52 185.94 232.52 184.15L232.52 183.85Q232.55 182.16 233.15 181.33Q233.22 181.24 233.3 181.16ZM106.83 183.07Q106.6 182.72 106.6 182.21Q106.6 181.8 106.77 181.48Q106.88 181.27 107.07 181.09Q107.55 180.66 108.65 180.66L111.23 180.66L111.23 183.85L108.96 183.85Q107.84 183.85 107.22 183.45Q106.98 183.29 106.83 183.07ZM168.32 181.23Q168.54 181.52 168.54 181.98Q168.54 182.29 168.41 182.53Q167.98 183.31 166.15 183.31L163.97 183.31L163.97 180.66L166.44 180.66Q167.55 180.66 168.05 180.98Q168.21 181.08 168.32 181.23ZM174.38 184.91Q175.08 184.41 176.88 184.33L178.3 184.28L178.3 185.14Q178.3 186.35 177.7 187.02Q177.6 187.13 177.49 187.22Q177.33 187.35 177.17 187.46Q176.45 187.9 175.46 187.9Q174.69 187.9 174.2 187.53Q174.19 187.52 174.18 187.52Q174.09 187.45 174.02 187.36Q173.69 186.99 173.69 186.33Q173.69 185.8 173.93 185.4Q174.1 185.12 174.38 184.91ZM203.18 184.91Q203.88 184.41 205.68 184.33L207.1 184.28L207.1 185.14Q207.1 186.35 206.5 187.02Q206.4 187.13 206.29 187.22Q206.13 187.35 205.97 187.46Q205.25 187.9 204.26 187.9Q203.49 187.9 203 187.53Q202.99 187.52 202.98 187.52Q202.89 187.45 202.82 187.36Q202.49 186.99 202.49 186.33Q202.49 185.8 202.73 185.4Q202.9 185.12 203.18 184.91ZM243.63 184.91Q244.32 184.41 246.12 184.33L247.55 184.28L247.55 185.14Q247.55 186.35 246.94 187.02Q246.85 187.13 246.73 187.22Q246.58 187.35 246.41 187.46Q245.69 187.9 244.7 187.9Q243.94 187.9 243.44 187.53Q243.44 187.52 243.43 187.52Q243.34 187.45 243.26 187.36Q242.94 186.99 242.94 186.33Q242.94 185.8 243.17 185.4Q243.34 185.12 243.63 184.91ZM168.56 185.31Q168.81 185.65 168.81 186.17Q168.81 186.72 168.54 187.06Q168.4 187.24 168.18 187.37Q167.55 187.72 166.36 187.72L163.97 187.72L163.97 184.62L166.33 184.62Q167.55 184.62 168.18 184.98Q168.42 185.12 168.56 185.31ZM255.12 203.02Q256.12 202.39 257.51 202.39Q258.37 202.39 259.1 202.6Q259.83 202.82 260.43 203.09L261.08 201.72Q259.56 200.97 257.53 200.97Q255.55 200.97 254.16 201.8Q253.55 202.17 253.07 202.67Q252.46 203.29 252.06 204.12Q251.36 205.61 251.36 207.55Q251.36 209.57 252.01 211.06Q252.44 212.04 253.16 212.73Q253.53 213.09 253.98 213.37Q255.3 214.18 257.26 214.18Q258.32 214.18 259.09 214.05Q259.57 213.97 260.03 213.84Q260.3 213.75 260.57 213.65L260.57 212.25Q259.85 212.47 259.09 212.61Q258.34 212.75 257.5 212.75Q255.78 212.75 254.73 211.92Q254.42 211.67 254.17 211.36Q253.07 209.96 253.07 207.57Q253.07 205.16 254.25 203.77Q254.64 203.32 255.12 203.02ZM244.8 214L246.42 214L246.42 202.57L250.42 202.57L250.42 201.14L240.79 201.14L240.79 202.57L244.8 202.57L244.8 214ZM69.01 212.8Q70.18 211.49 70.18 209.15Q70.18 207.55 69.61 206.45Q69.2 205.65 68.57 205.12Q68.32 204.92 68.04 204.75Q67.98 204.72 67.92 204.69Q66.97 204.17 65.73 204.17Q64.21 204.17 63.15 204.87Q62.77 205.12 62.45 205.47Q62.44 205.48 62.43 205.49Q61.25 206.78 61.25 209.15Q61.25 210.76 61.82 211.88Q62.27 212.76 62.97 213.3Q63.17 213.46 63.4 213.59Q63.55 213.68 63.71 213.76Q64.59 214.18 65.68 214.18Q67.17 214.18 68.21 213.49Q68.62 213.23 68.96 212.86Q68.99 212.83 69.01 212.8ZM105.41 204.71Q104.53 204.17 103.28 204.17Q102.19 204.17 101.33 204.62Q101.18 204.69 101.04 204.78Q100.84 204.91 100.66 205.06Q99.97 205.63 99.55 206.52Q99.02 207.66 99.02 209.25Q99.02 210.84 99.6 211.95Q99.98 212.68 100.57 213.17Q100.88 213.42 101.24 213.62Q102.29 214.18 103.66 214.18Q104.65 214.18 105.37 214.02Q106.09 213.87 106.83 213.55L106.83 212.16Q106.07 212.48 105.36 212.66Q104.65 212.83 103.73 212.83Q102.57 212.83 101.82 212.27Q101.65 212.14 101.49 211.97Q100.69 211.12 100.65 209.48L107.26 209.48L107.26 208.52Q107.26 207.21 106.78 206.23Q106.47 205.59 105.99 205.14Q105.73 204.9 105.41 204.71ZM111.3 213.65Q112.3 214.18 113.58 214.18Q114.41 214.18 114.99 214.04Q115.57 213.91 116.06 213.65L116.06 212.25Q115.56 212.48 114.96 212.65Q114.35 212.81 113.56 212.81Q112.6 212.81 111.97 212.35Q111.7 212.16 111.5 211.88Q110.81 210.95 110.81 209.21Q110.81 206.93 111.91 206.07Q112.58 205.55 113.65 205.55Q114.16 205.55 114.73 205.7Q115.31 205.84 115.74 206L116.23 204.69Q115.79 204.47 115.11 204.32Q114.42 204.17 113.69 204.17Q112.39 204.17 111.37 204.69Q111.16 204.8 110.96 204.94Q110.23 205.45 109.76 206.33Q109.17 207.44 109.17 209.23Q109.17 210.94 109.73 212.04Q110.16 212.85 110.82 213.35Q111.04 213.52 111.3 213.65ZM133.96 212.8Q135.13 211.49 135.13 209.15Q135.13 207.55 134.56 206.45Q134.15 205.65 133.52 205.12Q133.27 204.92 132.99 204.75Q132.93 204.72 132.87 204.69Q131.91 204.17 130.68 204.17Q129.15 204.17 128.1 204.87Q127.72 205.12 127.4 205.47Q127.39 205.48 127.38 205.49Q126.2 206.78 126.2 209.15Q126.2 210.76 126.77 211.88Q127.22 212.76 127.92 213.3Q128.12 213.46 128.34 213.59Q128.5 213.68 128.66 213.76Q129.54 214.18 130.63 214.18Q132.12 214.18 133.16 213.49Q133.57 213.23 133.91 212.86Q133.94 212.83 133.96 212.8ZM156.09 212.8Q157.25 211.49 157.25 209.15Q157.25 207.55 156.68 206.45Q156.27 205.65 155.64 205.12Q155.39 204.92 155.11 204.75Q155.05 204.72 154.99 204.69Q154.04 204.17 152.8 204.17Q151.28 204.17 150.22 204.87Q149.84 205.12 149.52 205.47Q149.51 205.48 149.5 205.49Q148.32 206.78 148.32 209.15Q148.32 210.76 148.89 211.88Q149.34 212.76 150.04 213.3Q150.24 213.46 150.47 213.59Q150.62 213.68 150.78 213.76Q151.66 214.18 152.75 214.18Q154.24 214.18 155.28 213.49Q155.69 213.23 156.03 212.86Q156.06 212.83 156.09 212.8ZM177.38 212.8Q178.54 211.49 178.54 209.15Q178.54 207.55 177.97 206.45Q177.57 205.65 176.94 205.12Q176.69 204.92 176.41 204.75Q176.35 204.72 176.29 204.69Q175.33 204.17 174.09 204.17Q172.57 204.17 171.51 204.87Q171.13 205.12 170.82 205.47Q170.8 205.48 170.79 205.49Q169.61 206.78 169.61 209.15Q169.61 210.76 170.19 211.88Q170.63 212.76 171.34 213.3Q171.54 213.46 171.76 213.59Q171.91 213.68 172.07 213.76Q172.96 214.18 174.04 214.18Q175.53 214.18 176.58 213.49Q176.99 213.23 177.32 212.86Q177.35 212.83 177.38 212.8ZM199.68 204.71Q198.79 204.17 197.55 204.17Q196.46 204.17 195.59 204.62Q195.45 204.69 195.31 204.78Q195.11 204.91 194.93 205.06Q194.23 205.63 193.81 206.52Q193.28 207.66 193.28 209.25Q193.28 210.84 193.87 211.95Q194.25 212.68 194.83 213.17Q195.14 213.42 195.51 213.62Q196.56 214.18 197.93 214.18Q198.92 214.18 199.64 214.02Q200.36 213.87 201.1 213.55L201.1 212.16Q200.34 212.48 199.63 212.66Q198.92 212.83 198 212.83Q196.84 212.83 196.09 212.27Q195.91 212.14 195.76 211.97Q194.96 211.12 194.92 209.48L201.53 209.48L201.53 208.52Q201.53 207.21 201.05 206.23Q200.74 205.59 200.26 205.14Q199.99 204.9 199.68 204.71ZM76.01 205.68L79.16 205.68L79.16 204.35L71.33 204.35L71.33 205.68L74.44 205.68L74.44 214L76.01 214L76.01 205.68ZM96.48 214L96.48 204.35L94.37 204.35L91.28 212.11L88.23 204.35L86.13 204.35L86.13 214L87.55 214L87.55 207.89Q87.55 207.05 87.49 206.24L87.55 206.24L90.61 214L91.94 214L95.09 206.24L95.15 206.24Q95.11 206.63 95.08 207.05Q95.06 207.46 95.06 207.84L95.06 214L96.48 214ZM121.86 205.68L125.01 205.68L125.01 204.35L117.18 204.35L117.18 205.68L120.29 205.68L120.29 214L121.86 214L121.86 205.68ZM145.78 214L145.78 204.35L137.63 204.35L137.63 214L139.21 214L139.21 205.7L144.2 205.7L144.2 214L145.78 214ZM165.49 214L167.09 214L167.09 204.35L161.28 204.35Q160.97 208.74 160.39 210.81Q159.85 212.7 158.99 212.86Q158.91 212.88 158.83 212.88Q158.71 212.88 158.58 212.86Q158.45 212.84 158.35 212.81L158.35 214Q158.49 214.07 158.71 214.09Q158.94 214.12 159.17 214.12Q159.64 214.12 160.04 213.95Q160.53 213.74 160.9 213.28Q161.59 212.43 162 210.57Q162.41 208.7 162.65 205.66L165.49 205.66L165.49 214ZM188.28 209.03L192.26 204.35L190.55 204.35L186.62 209.03L186.62 204.35L185.15 204.35L185.15 209.03L181.24 204.35L179.51 204.35L183.49 209.03L179.17 214L180.97 214L185.15 209.1L185.15 214L186.62 214L186.62 209.1L190.8 214L192.6 214L188.28 209.03ZM205.56 208.36L205.56 204.35L203.97 204.35L203.97 214L205.56 214L205.56 209.69L210.8 209.69L210.8 214L212.38 214L212.38 204.35L210.8 204.35L210.8 208.36L205.56 208.36ZM216.92 210.88Q216.93 210.45 216.93 210.23L216.93 204.35L215.44 204.35L215.44 214L217.4 214L222.53 205.93Q222.52 206.16 222.5 206.63Q222.48 207.08 222.47 207.55Q222.46 208.02 222.46 208.31L222.46 214L223.93 214L223.93 204.35L221.99 204.35L216.83 212.43Q216.85 212.18 216.87 211.75Q216.9 211.31 216.92 210.88ZM225.77 214L227.61 214L230.09 210.16L232.43 210.16L232.43 214L234.02 214L234.02 204.35L229.69 204.35Q228.15 204.35 227.21 205.08Q226.93 205.3 226.73 205.57Q226.28 206.22 226.28 207.19Q226.28 208.04 226.6 208.6Q226.86 209.05 227.24 209.34Q227.34 209.42 227.44 209.49Q227.97 209.8 228.53 209.94L225.77 214ZM101.89 205.83Q102.46 205.46 103.27 205.46Q104.19 205.46 104.74 205.92Q104.9 206.05 105.03 206.23Q105.59 207 105.6 208.22L100.69 208.22Q100.82 206.92 101.47 206.19Q101.66 205.98 101.89 205.83ZM196.16 205.83Q196.73 205.46 197.53 205.46Q198.46 205.46 199 205.92Q199.17 206.05 199.29 206.23Q199.85 207 199.87 208.22L194.96 208.22Q195.08 206.92 195.74 206.19Q195.93 205.98 196.16 205.83ZM63.56 211.86Q62.89 210.86 62.89 209.15Q62.89 207.44 63.55 206.47Q63.72 206.23 63.94 206.04Q64.59 205.5 65.69 205.5Q66.79 205.5 67.45 206.04Q67.68 206.22 67.85 206.47Q68.54 207.44 68.54 209.15Q68.54 210.86 67.85 211.86Q67.65 212.15 67.39 212.36Q66.75 212.86 65.71 212.86Q64.64 212.86 64 212.34Q63.75 212.14 63.56 211.86ZM128.51 211.86Q127.83 210.86 127.83 209.15Q127.83 207.44 128.5 206.47Q128.67 206.23 128.89 206.04Q129.54 205.5 130.64 205.5Q131.74 205.5 132.4 206.04Q132.63 206.22 132.8 206.47Q133.49 207.44 133.49 209.15Q133.49 210.86 132.8 211.86Q132.6 212.15 132.34 212.36Q131.7 212.86 130.66 212.86Q129.59 212.86 128.94 212.34Q128.69 212.14 128.51 211.86ZM150.63 211.86Q149.96 210.86 149.96 209.15Q149.96 207.44 150.62 206.47Q150.79 206.23 151.01 206.04Q151.66 205.5 152.76 205.5Q153.87 205.5 154.52 206.04Q154.75 206.22 154.92 206.47Q155.61 207.44 155.61 209.15Q155.61 210.86 154.92 211.86Q154.72 212.15 154.46 212.36Q153.82 212.86 152.78 212.86Q151.72 212.86 151.07 212.34Q150.82 212.14 150.63 211.86ZM171.92 211.86Q171.25 210.86 171.25 209.15Q171.25 207.44 171.91 206.47Q172.08 206.23 172.3 206.04Q172.95 205.5 174.06 205.5Q175.16 205.5 175.82 206.04Q176.04 206.22 176.22 206.47Q176.9 207.44 176.9 209.15Q176.9 210.86 176.22 211.86Q176.02 212.15 175.75 212.36Q175.11 212.86 174.08 212.86Q173.01 212.86 172.36 212.34Q172.11 212.14 171.92 211.86ZM228.04 208.07Q227.81 207.72 227.81 207.21Q227.81 206.8 227.98 206.48Q228.09 206.27 228.28 206.09Q228.76 205.66 229.86 205.66L232.43 205.66L232.43 208.85L230.16 208.85Q229.05 208.85 228.42 208.45Q228.19 208.29 228.04 208.07ZM263.63 212.21L265.26 212.21L265.16 212.9C264.94 214.35 264.29 216.32 263.98 217.19L262.83 217.19C263 216.38 263.36 214.65 263.55 212.92L263.63 212.21ZM45.05 229.63Q44.22 229.17 43.14 229.17Q41.97 229.17 41.26 229.6Q40.64 229.98 40.23 230.53Q40.18 230.59 40.13 230.66L40.06 230.66L39.84 229.35L38.55 229.35L38.55 243.32L40.13 243.32L40.13 239.36Q40.13 239.01 40.09 238.55Q40.06 238.08 40.02 237.77L40.13 237.77Q40.55 238.33 41.28 238.75Q42.01 239.18 43.12 239.18Q44.19 239.18 45.01 238.72Q45.57 238.41 46.01 237.9Q47.1 236.62 47.1 234.15Q47.1 231.65 46.01 230.41Q45.58 229.92 45.05 229.63ZM61.31 238.65Q62.31 239.18 63.59 239.18Q64.41 239.18 65 239.04Q65.58 238.91 66.07 238.65L66.07 237.25Q65.56 237.48 64.96 237.65Q64.36 237.81 63.57 237.81Q62.6 237.81 61.97 237.35Q61.71 237.16 61.5 236.88Q60.81 235.95 60.81 234.21Q60.81 231.93 61.92 231.07Q62.58 230.55 63.66 230.55Q64.16 230.55 64.74 230.7Q65.31 230.84 65.74 231L66.23 229.69Q65.8 229.47 65.12 229.32Q64.43 229.17 63.69 229.17Q62.4 229.17 61.38 229.69Q61.16 229.8 60.97 229.94Q60.24 230.45 59.77 231.33Q59.18 232.44 59.18 234.23Q59.18 235.94 59.74 237.04Q60.16 237.85 60.82 238.35Q61.05 238.52 61.31 238.65ZM69.95 238.65Q70.95 239.18 72.23 239.18Q73.05 239.18 73.64 239.04Q74.22 238.91 74.71 238.65L74.71 237.25Q74.2 237.48 73.6 237.65Q73 237.81 72.21 237.81Q71.24 237.81 70.61 237.35Q70.35 237.16 70.14 236.88Q69.45 235.95 69.45 234.21Q69.45 231.93 70.56 231.07Q71.22 230.55 72.3 230.55Q72.8 230.55 73.38 230.7Q73.95 230.84 74.38 231L74.87 229.69Q74.44 229.47 73.76 229.32Q73.07 229.17 72.33 229.17Q71.04 229.17 70.02 229.69Q69.8 229.8 69.61 229.94Q68.88 230.45 68.41 231.33Q67.82 232.44 67.82 234.23Q67.82 235.94 68.38 237.04Q68.8 237.85 69.46 238.35Q69.69 238.52 69.95 238.65ZM92.61 237.8Q93.77 236.49 93.77 234.15Q93.77 232.55 93.21 231.45Q92.8 230.65 92.17 230.12Q91.92 229.92 91.64 229.75Q91.58 229.72 91.52 229.69Q90.56 229.17 89.33 229.17Q87.8 229.17 86.75 229.87Q86.37 230.12 86.05 230.47Q86.04 230.48 86.02 230.49Q84.84 231.78 84.84 234.15Q84.84 235.76 85.42 236.88Q85.87 237.76 86.57 238.3Q86.77 238.46 86.99 238.59Q87.15 238.68 87.31 238.76Q88.19 239.18 89.27 239.18Q90.76 239.18 91.81 238.49Q92.22 238.23 92.56 237.86Q92.58 237.83 92.61 237.8ZM135.23 229.71Q134.35 229.17 133.1 229.17Q132.01 229.17 131.15 229.62Q131 229.69 130.86 229.78Q130.66 229.91 130.48 230.06Q129.79 230.63 129.37 231.52Q128.84 232.66 128.84 234.25Q128.84 235.84 129.42 236.95Q129.81 237.68 130.39 238.17Q130.7 238.42 131.06 238.62Q132.11 239.18 133.48 239.18Q134.47 239.18 135.19 239.02Q135.91 238.87 136.65 238.55L136.65 237.16Q135.89 237.48 135.18 237.66Q134.47 237.83 133.55 237.83Q132.39 237.83 131.64 237.27Q131.47 237.14 131.31 236.97Q130.51 236.12 130.47 234.48L137.08 234.48L137.08 233.52Q137.08 232.21 136.6 231.23Q136.29 230.59 135.81 230.14Q135.55 229.9 135.23 229.71ZM163.88 229.71Q162.99 229.17 161.75 229.17Q160.65 229.17 159.79 229.62Q159.64 229.69 159.5 229.78Q159.3 229.91 159.12 230.06Q158.43 230.63 158.01 231.52Q157.48 232.66 157.48 234.25Q157.48 235.84 158.06 236.95Q158.45 237.68 159.03 238.17Q159.34 238.42 159.7 238.62Q160.76 239.18 162.12 239.18Q163.11 239.18 163.83 239.02Q164.55 238.87 165.29 238.55L165.29 237.16Q164.54 237.48 163.82 237.66Q163.11 237.83 162.19 237.83Q161.03 237.83 160.29 237.27Q160.11 237.14 159.95 236.97Q159.15 236.12 159.12 234.48L165.72 234.48L165.72 233.52Q165.72 232.21 165.24 231.23Q164.94 230.59 164.45 230.14Q164.19 229.9 163.88 229.71ZM55.88 229.96Q55.04 229.19 53.27 229.19Q52.34 229.19 51.47 229.43Q50.61 229.67 49.98 230.01L50.47 231.2Q51.06 230.91 51.74 230.69Q51.79 230.67 51.84 230.66Q52.48 230.46 53.18 230.46Q54.14 230.46 54.66 230.93Q55.18 231.4 55.18 232.61L55.18 233.18L53.54 233.23Q51.19 233.31 50.05 234.09Q49.54 234.44 49.26 234.92Q48.91 235.52 48.91 236.31Q48.91 237.57 49.54 238.26Q49.65 238.38 49.78 238.49Q49.89 238.58 50.01 238.65Q50.82 239.18 51.96 239.18Q53.18 239.18 53.88 238.8Q54.57 238.42 55.2 237.63L55.27 237.63L55.58 239L56.73 239L56.73 232.43Q56.73 230.74 55.89 229.97Q55.88 229.96 55.88 229.96ZM262.6 229.96Q261.76 229.19 260 229.19Q259.06 229.19 258.19 229.43Q257.33 229.67 256.7 230.01L257.19 231.2Q257.78 230.91 258.46 230.69Q258.51 230.67 258.56 230.66Q259.2 230.46 259.9 230.46Q260.86 230.46 261.38 230.93Q261.9 231.4 261.9 232.61L261.9 233.18L260.26 233.23Q257.91 233.31 256.77 234.09Q256.26 234.44 255.98 234.92Q255.64 235.52 255.64 236.31Q255.64 237.57 256.26 238.26Q256.37 238.38 256.5 238.49Q256.61 238.58 256.73 238.65Q257.54 239.18 258.68 239.18Q259.9 239.18 260.6 238.8Q261.29 238.42 261.92 237.63L261.99 237.63L262.3 239L263.45 239L263.45 232.43Q263.45 230.74 262.61 229.97L262.6 229.96ZM80.51 230.68L83.66 230.68L83.66 229.35L75.83 229.35L75.83 230.68L78.94 230.68L78.94 239L80.51 239L80.51 230.68ZM95.03 239L96.87 239L99.35 235.16L101.69 235.16L101.69 239L103.28 239L103.28 229.35L98.95 229.35Q97.41 229.35 96.47 230.08Q96.19 230.3 95.99 230.57Q95.54 231.22 95.54 232.19Q95.54 233.04 95.86 233.6Q96.12 234.05 96.5 234.34Q96.6 234.42 96.7 234.49Q97.23 234.8 97.79 234.94L95.03 239ZM107.92 233.36L107.92 229.35L106.34 229.35L106.34 239L107.92 239L107.92 234.69L113.16 234.69L113.16 239L114.74 239L114.74 229.35L113.16 229.35L113.16 233.36L107.92 233.36ZM119.28 235.88Q119.3 235.45 119.3 235.23L119.3 229.35L117.8 229.35L117.8 239L119.77 239L124.89 230.93Q124.88 231.16 124.86 231.63Q124.84 232.08 124.83 232.55Q124.82 233.02 124.82 233.31L124.82 239L126.3 239L126.3 229.35L124.35 229.35L119.19 237.43Q119.21 237.18 119.23 236.75Q119.26 236.31 119.28 235.88ZM154.94 239L154.94 229.35L152.83 229.35L149.74 237.11L146.7 229.35L144.59 229.35L144.59 239L146.01 239L146.01 232.89Q146.01 232.05 145.96 231.24L146.01 231.24L149.07 239L150.4 239L153.56 231.24L153.61 231.24Q153.57 231.63 153.55 232.05Q153.52 232.46 153.52 232.84L153.52 239L154.94 239ZM175.77 234.03L179.75 229.35L178.04 229.35L174.11 234.03L174.11 229.35L172.64 229.35L172.64 234.03L168.73 229.35L167 229.35L170.98 234.03L166.66 239L168.46 239L172.64 234.1L172.64 239L174.11 239L174.11 234.1L178.29 239L180.09 239L175.77 234.03ZM188.83 237.66L188.83 229.35L183.76 229.35Q183.75 229.82 183.72 230.3Q183.61 232.04 183.12 233.77Q182.5 235.95 181.26 237.66L180.48 237.66L180.48 242.34L182 242.34L182 239L188.71 239L188.71 242.34L190.24 242.34L190.24 237.66L188.83 237.66ZM192.31 229.35L190.62 229.35L194.51 239.03L194 240.31Q193.71 241.08 193.2 241.55Q193.1 241.64 192.99 241.71Q192.53 242.02 191.86 242.02Q191.55 242.02 191.27 241.98Q190.99 241.95 190.8 241.91L190.8 243.17Q191.03 243.23 191.36 243.27Q191.68 243.32 192.11 243.32Q193.28 243.32 194.03 242.76Q194.18 242.64 194.32 242.5Q195.12 241.69 195.62 240.33L199.78 229.35L198.07 229.35L196.11 234.82Q195.86 235.56 195.62 236.29Q195.39 237.01 195.28 237.47L195.21 237.47Q195.1 236.87 194.88 236.22Q194.67 235.56 194.4 234.84L192.31 229.35ZM214.53 239L214.53 229.35L206.37 229.35L206.37 239L207.96 239L207.96 230.7L212.94 230.7L212.94 239L214.53 239ZM217.78 229.35L216.09 229.35L219.98 239.03L219.48 240.31Q219.19 241.08 218.68 241.55Q218.58 241.64 218.47 241.71Q218 242.02 217.33 242.02Q217.03 242.02 216.75 241.98Q216.47 241.95 216.27 241.91L216.27 243.17Q216.5 243.23 216.83 243.27Q217.15 243.32 217.59 243.32Q218.75 243.32 219.5 242.76Q219.65 242.64 219.79 242.5Q220.59 241.69 221.1 240.33L225.25 229.35L223.54 229.35L221.58 234.82Q221.33 235.56 221.1 236.29Q220.86 237.01 220.75 237.47L220.68 237.47Q220.57 236.87 220.36 236.22Q220.14 235.56 219.87 234.84L217.78 229.35ZM228.37 233.36L228.37 229.35L226.78 229.35L226.78 239L228.37 239L228.37 234.69L233.61 234.69L233.61 239L235.19 239L235.19 229.35L233.61 229.35L233.61 233.36L228.37 233.36ZM245.68 229.35L243.96 229.35L239.84 234.03L239.84 229.35L238.25 229.35L238.25 239L239.84 239L239.84 234.1L244.19 239L246.03 239L241.56 233.99L245.68 229.35ZM251.28 230.68L254.43 230.68L254.43 229.35L246.6 229.35L246.6 230.68L249.72 230.68L249.72 239L251.28 239L251.28 230.68ZM276.79 239L276.79 229.35L274.68 229.35L271.59 237.11L268.54 229.35L266.44 229.35L266.44 239L267.86 239L267.86 232.89Q267.86 232.05 267.8 231.24L267.86 231.24L270.92 239L272.25 239L275.4 231.24L275.45 231.24Q275.42 231.63 275.39 232.05Q275.37 232.46 275.37 232.84L275.37 239L276.79 239ZM281.34 235.88Q281.36 235.45 281.36 235.23L281.36 229.35L279.87 229.35L279.87 239L281.83 239L286.96 230.93Q286.94 231.16 286.92 231.63Q286.91 232.08 286.9 232.55Q286.89 233.02 286.89 233.31L286.89 239L288.36 239L288.36 229.35L286.42 229.35L281.25 237.43Q281.27 237.18 281.3 236.75Q281.32 236.31 281.34 235.88ZM131.71 230.83Q132.28 230.46 133.09 230.46Q134.01 230.46 134.56 230.92Q134.72 231.05 134.85 231.23Q135.41 232 135.42 233.22L130.51 233.22Q130.64 231.92 131.29 231.19Q131.48 230.98 131.71 230.83ZM160.36 230.83Q160.92 230.46 161.73 230.46Q162.66 230.46 163.2 230.92Q163.36 231.05 163.49 231.23Q164.05 232 164.07 233.22L159.15 233.22Q159.28 231.92 159.93 231.19Q160.13 230.98 160.36 230.83ZM40.92 231.16Q41.54 230.5 42.85 230.5Q43.69 230.5 44.26 230.9Q44.58 231.13 44.82 231.49Q45.46 232.48 45.46 234.14Q45.46 235.22 45.18 236.06Q44.9 236.89 44.34 237.38Q44.24 237.46 44.14 237.52Q43.62 237.86 42.89 237.86Q41.59 237.86 40.96 237.21Q40.82 237.07 40.72 236.9Q40.13 235.94 40.13 234.15L40.13 233.85Q40.17 232.16 40.77 231.33Q40.84 231.24 40.92 231.16ZM87.15 236.86Q86.48 235.86 86.48 234.15Q86.48 232.44 87.15 231.47Q87.31 231.23 87.53 231.04Q88.19 230.5 89.29 230.5Q90.39 230.5 91.05 231.04Q91.27 231.22 91.45 231.47Q92.13 232.44 92.13 234.15Q92.13 235.86 91.45 236.86Q91.25 237.15 90.99 237.36Q90.34 237.86 89.31 237.86Q88.24 237.86 87.59 237.34Q87.34 237.14 87.15 236.86ZM184.78 233.12Q185.09 231.81 185.16 230.59L187.3 230.59L187.3 237.66L182.9 237.66Q183.53 236.8 184 235.61Q184.48 234.43 184.78 233.12ZM97.3 233.07Q97.06 232.72 97.06 232.21Q97.06 231.8 97.24 231.48Q97.35 231.27 97.54 231.09Q98.02 230.66 99.12 230.66L101.69 230.66L101.69 233.85L99.42 233.85Q98.31 233.85 97.68 233.45Q97.45 233.29 97.3 233.07ZM51.25 234.91Q51.94 234.41 53.74 234.33L55.16 234.28L55.16 235.14Q55.16 236.35 54.56 237.02Q54.46 237.13 54.35 237.22Q54.2 237.35 54.03 237.46Q53.31 237.9 52.32 237.9Q51.55 237.9 51.06 237.53Q51.05 237.52 51.05 237.52Q50.95 237.45 50.88 237.36Q50.55 236.99 50.55 236.33Q50.55 235.8 50.79 235.4Q50.96 235.12 51.25 234.91ZM257.97 234.91Q258.66 234.41 260.46 234.33L261.88 234.28L261.88 235.14Q261.88 236.35 261.28 237.02Q261.19 237.13 261.07 237.22Q260.92 237.35 260.75 237.46Q260.03 237.9 259.04 237.9Q258.27 237.9 257.78 237.53Q257.77 237.52 257.77 237.52Q257.68 237.45 257.6 237.36Q257.28 236.99 257.28 236.33Q257.28 235.8 257.51 235.4Q257.68 235.12 257.97 234.91ZM186.43 252.73L190.66 264L191.99 264L196.27 252.75L196.35 252.75Q196.31 253.32 196.27 254.24Q196.22 255.16 196.22 256.09L196.22 264L197.83 264L197.83 251.14L195.45 251.14L191.42 261.68L191.34 261.68L187.38 251.14L184.99 251.14L184.99 264L186.48 264L186.48 256.2Q186.48 255.18 186.45 254.23Q186.41 253.29 186.36 252.73L186.43 252.73ZM102.84 262.8Q104 261.49 104 259.15Q104 257.55 103.43 256.45Q103.03 255.65 102.39 255.12Q102.15 254.92 101.86 254.75Q101.81 254.72 101.75 254.69Q100.79 254.17 99.55 254.17Q98.03 254.17 96.97 254.87Q96.59 255.12 96.27 255.47Q96.26 255.48 96.25 255.49Q95.07 256.78 95.07 259.15Q95.07 260.76 95.65 261.88Q96.09 262.76 96.79 263.3Q97 263.46 97.22 263.59Q97.37 263.68 97.53 263.76Q98.42 264.18 99.5 264.18Q100.99 264.18 102.04 263.49Q102.44 263.23 102.78 262.86Q102.81 262.83 102.84 262.8ZM120.79 254.63Q119.97 254.17 118.89 254.17Q117.71 254.17 117.01 254.6Q116.39 254.98 115.98 255.53Q115.93 255.59 115.88 255.66L115.81 255.66L115.59 254.35L114.29 254.35L114.29 268.32L115.88 268.32L115.88 264.35Q115.88 264.01 115.84 263.55Q115.81 263.08 115.77 262.77L115.88 262.77Q116.29 263.33 117.02 263.75Q117.75 264.18 118.87 264.18Q119.94 264.18 120.76 263.72Q121.32 263.41 121.76 262.9Q122.85 261.62 122.85 259.15Q122.85 256.65 121.76 255.41Q121.33 254.92 120.79 254.63ZM139.54 254.83Q138.56 254.17 136.9 254.17Q135.05 254.17 133.54 254.83L134.1 256.09Q134.82 255.79 135.42 255.64Q136.02 255.48 136.81 255.48Q137.88 255.48 138.44 255.83Q138.7 255.98 138.84 256.21Q139.01 256.48 139.01 256.85Q139.01 257.25 138.83 257.53Q138.64 257.82 138.26 257.99Q137.52 258.33 136.27 258.33L135.23 258.33L135.23 259.62L136.53 259.62Q138.57 259.62 139.1 260.52Q139.28 260.82 139.28 261.24Q139.28 261.75 139.03 262.09Q138.85 262.35 138.53 262.51Q137.78 262.88 136.71 262.88Q135.71 262.88 134.87 262.65Q134.04 262.41 133.43 262.12L133.43 263.55Q133.99 263.83 134.83 264Q135.68 264.18 136.72 264.18Q138.85 264.18 139.84 263.36Q140.45 262.87 140.69 262.24Q140.85 261.81 140.85 261.33Q140.85 260.59 140.55 260.13Q140.42 259.93 140.27 259.77Q140.05 259.54 139.77 259.37Q139.28 259.08 138.7 258.92L138.7 258.85Q139.55 258.61 140.03 258.1Q140.1 258.04 140.15 257.96Q140.52 257.47 140.52 256.7Q140.52 256.04 140.23 255.55Q139.99 255.13 139.54 254.83ZM208.33 262.8Q209.49 261.49 209.49 259.15Q209.49 257.55 208.92 256.45Q208.51 255.65 207.88 255.12Q207.63 254.92 207.35 254.75Q207.29 254.72 207.23 254.69Q206.28 254.17 205.04 254.17Q203.52 254.17 202.46 254.87Q202.08 255.12 201.76 255.47Q201.75 255.48 201.74 255.49Q200.56 256.78 200.56 259.15Q200.56 260.76 201.13 261.88Q201.58 262.76 202.28 263.3Q202.49 263.46 202.71 263.59Q202.86 263.68 203.02 263.76Q203.91 264.18 204.99 264.18Q206.48 264.18 207.53 263.49Q207.93 263.23 208.27 262.86Q208.3 262.83 208.33 262.8ZM213.58 263.65Q214.58 264.18 215.86 264.18Q216.69 264.18 217.27 264.04Q217.86 263.91 218.34 263.65L218.34 262.25Q217.84 262.48 217.24 262.65Q216.63 262.81 215.84 262.81Q214.88 262.81 214.25 262.35Q213.98 262.16 213.78 261.88Q213.09 260.95 213.09 259.21Q213.09 256.93 214.19 256.07Q214.86 255.55 215.93 255.55Q216.44 255.55 217.01 255.7Q217.59 255.84 218.02 256L218.51 254.69Q218.08 254.47 217.39 254.32Q216.7 254.17 215.97 254.17Q214.67 254.17 213.65 254.69Q213.44 254.8 213.24 254.94Q212.51 255.45 212.04 256.33Q211.45 257.44 211.45 259.23Q211.45 260.94 212.02 262.04Q212.44 262.85 213.1 263.35Q213.33 263.52 213.58 263.65ZM246.38 254.71Q245.49 254.17 244.25 254.17Q243.15 254.17 242.29 254.62Q242.14 254.69 242 254.78Q241.81 254.91 241.62 255.06Q240.93 255.63 240.51 256.52Q239.98 257.66 239.98 259.25Q239.98 260.84 240.56 261.95Q240.95 262.68 241.53 263.17Q241.84 263.42 242.2 263.62Q243.26 264.18 244.62 264.18Q245.61 264.18 246.33 264.02Q247.05 263.87 247.79 263.55L247.79 262.16Q247.04 262.48 246.32 262.66Q245.61 262.83 244.69 262.83Q243.53 262.83 242.79 262.27Q242.61 262.14 242.45 261.97Q241.65 261.12 241.62 259.48L248.22 259.48L248.22 258.52Q248.22 257.21 247.74 256.23Q247.44 255.59 246.95 255.14Q246.69 254.9 246.38 254.71ZM92.53 264L92.53 254.35L84.38 254.35L84.38 264L85.96 264L85.96 255.7L90.95 255.7L90.95 264L92.53 264ZM112.39 255.68L112.39 254.35L106.5 254.35L106.5 264L108.09 264L108.09 255.68L112.39 255.68ZM125.36 254.35L123.67 254.35L127.56 264.03L127.06 265.31Q126.77 266.08 126.26 266.55Q126.16 266.64 126.05 266.71Q125.58 267.02 124.92 267.02Q124.61 267.02 124.33 266.98Q124.05 266.95 123.85 266.91L123.85 268.17Q124.09 268.23 124.41 268.27Q124.74 268.32 125.17 268.32Q126.33 268.32 127.08 267.76Q127.24 267.64 127.37 267.5Q128.17 266.69 128.68 265.33L132.84 254.35L131.13 254.35L129.16 259.82Q128.91 260.56 128.68 261.29Q128.45 262.01 128.34 262.47L128.26 262.47Q128.16 261.87 127.94 261.22Q127.72 260.56 127.45 259.84L125.36 254.35ZM150.62 254.35L148.89 254.35L144.77 259.03L144.77 254.35L143.18 254.35L143.18 264L144.77 264L144.77 259.1L149.13 264L150.96 264L146.5 258.99L150.62 254.35ZM154.18 260.88Q154.2 260.45 154.2 260.23L154.2 254.35L152.71 254.35L152.71 264L154.67 264L159.8 255.93Q159.78 256.16 159.76 256.63Q159.75 257.08 159.74 257.55Q159.73 258.02 159.73 258.31L159.73 264L161.2 264L161.2 254.35L159.26 254.35L154.09 262.43Q154.11 262.18 154.14 261.75Q154.17 261.31 154.18 260.88ZM176.77 257.95Q177.1 257.49 177.1 256.78Q177.1 255.92 176.68 255.4Q176.65 255.36 176.62 255.33Q176.62 255.33 176.62 255.32Q176.14 254.8 175.33 254.57Q174.51 254.35 173.48 254.35L169.34 254.35L169.34 264L173.5 264Q175.59 264 176.5 263.2Q176.94 262.8 177.17 262.31Q177.41 261.79 177.41 261.17Q177.41 260.31 176.98 259.81Q176.87 259.68 176.74 259.58Q176.61 259.48 176.46 259.39Q175.89 259.04 175.17 258.94L175.17 258.87Q176.02 258.69 176.56 258.18Q176.68 258.07 176.77 257.95ZM228.06 254.35L226.34 254.35L222.22 259.03L222.22 254.35L220.63 254.35L220.63 264L222.22 264L222.22 259.1L226.57 264L228.41 264L223.94 258.99L228.06 254.35ZM237.58 257.95Q237.91 257.49 237.91 256.78Q237.91 255.92 237.49 255.4Q237.46 255.36 237.43 255.33L237.43 255.32Q236.95 254.8 236.14 254.57Q235.32 254.35 234.29 254.35L230.15 254.35L230.15 264L234.31 264Q236.4 264 237.31 263.2Q237.75 262.8 237.98 262.31Q238.22 261.79 238.22 261.17Q238.22 260.31 237.79 259.81Q237.68 259.68 237.55 259.58Q237.41 259.48 237.27 259.39Q236.7 259.04 235.98 258.94L235.98 258.87Q236.83 258.69 237.37 258.18Q237.49 258.07 237.58 257.95ZM242.86 255.83Q243.42 255.46 244.23 255.46Q245.16 255.46 245.7 255.92Q245.86 256.05 245.99 256.23Q246.55 257 246.57 258.22L241.65 258.22Q241.78 256.92 242.44 256.19Q242.63 255.98 242.86 255.83ZM97.38 261.86Q96.71 260.86 96.71 259.15Q96.71 257.44 97.37 256.47Q97.54 256.23 97.76 256.04Q98.41 255.5 99.52 255.5Q100.62 255.5 101.28 256.04Q101.5 256.22 101.67 256.47Q102.36 257.44 102.36 259.15Q102.36 260.86 101.67 261.86Q101.48 262.15 101.21 262.36Q100.57 262.86 99.53 262.86Q98.47 262.86 97.82 262.34Q97.57 262.14 97.38 261.86ZM116.66 256.16Q117.29 255.5 118.6 255.5Q119.44 255.5 120 255.9Q120.33 256.13 120.57 256.49Q121.21 257.48 121.21 259.14Q121.21 260.22 120.93 261.06Q120.65 261.89 120.08 262.38Q119.99 262.46 119.89 262.52Q119.37 262.86 118.63 262.86Q117.33 262.86 116.71 262.21Q116.57 262.07 116.47 261.9Q115.88 260.94 115.88 259.15L115.88 258.85Q115.92 257.16 116.52 256.33Q116.59 256.24 116.66 256.16ZM202.87 261.86Q202.2 260.86 202.2 259.15Q202.2 257.44 202.86 256.47Q203.03 256.23 203.25 256.04Q203.9 255.5 205.01 255.5Q206.11 255.5 206.77 256.04Q206.99 256.22 207.16 256.47Q207.85 257.44 207.85 259.15Q207.85 260.86 207.16 261.86Q206.97 262.15 206.7 262.36Q206.06 262.86 205.02 262.86Q203.96 262.86 203.31 262.34Q203.06 262.14 202.87 261.86ZM175.28 256.23Q175.5 256.52 175.5 256.98Q175.5 257.29 175.37 257.53Q174.93 258.31 173.1 258.31L170.93 258.31L170.93 255.66L173.39 255.66Q174.51 255.66 175 255.98Q175.17 256.08 175.28 256.23ZM236.09 256.23Q236.31 256.52 236.31 256.98Q236.31 257.29 236.17 257.53Q235.74 258.31 233.91 258.31L231.74 258.31L231.74 255.66L234.2 255.66Q235.32 255.66 235.81 255.98Q235.98 256.08 236.09 256.23ZM175.52 260.31Q175.77 260.65 175.77 261.17Q175.77 261.72 175.5 262.06Q175.36 262.24 175.14 262.37Q174.51 262.72 173.32 262.72L170.93 262.72L170.93 259.62L173.28 259.62Q174.51 259.62 175.14 259.98Q175.37 260.12 175.52 260.31ZM236.33 260.31Q236.58 260.65 236.58 261.17Q236.58 261.72 236.31 262.06Q236.17 262.24 235.95 262.37Q235.32 262.72 234.13 262.72L231.74 262.72L231.74 259.62L234.09 259.62Q235.32 259.62 235.95 259.98Q236.18 260.12 236.33 260.31ZM151.03 279.63Q150.2 279.17 149.12 279.17Q147.95 279.17 147.25 279.6Q146.62 279.98 146.21 280.53Q146.16 280.59 146.12 280.66L146.04 280.66L145.83 279.35L144.53 279.35L144.53 293.32L146.12 293.32L146.12 289.35Q146.12 289.01 146.08 288.55Q146.04 288.08 146.01 287.77L146.12 287.77Q146.53 288.33 147.26 288.75Q147.99 289.18 149.1 289.18Q150.17 289.18 150.99 288.72Q151.55 288.41 151.99 287.9Q153.08 286.62 153.08 284.15Q153.08 281.65 151.99 280.41Q151.56 279.92 151.03 279.63ZM169.78 279.83Q168.8 279.17 167.14 279.17Q165.29 279.17 163.77 279.83L164.33 281.09Q165.05 280.79 165.65 280.64Q166.26 280.48 167.05 280.48Q168.11 280.48 168.68 280.83Q168.94 280.98 169.08 281.21Q169.24 281.48 169.24 281.85Q169.24 282.25 169.07 282.53Q168.88 282.82 168.5 282.99Q167.75 283.33 166.51 283.33L165.47 283.33L165.47 284.62L166.76 284.62Q168.81 284.62 169.33 285.52Q169.51 285.82 169.51 286.24Q169.51 286.75 169.27 287.09Q169.09 287.35 168.77 287.51Q168.02 287.88 166.94 287.88Q165.95 287.88 165.11 287.65Q164.27 287.41 163.66 287.12L163.66 288.55Q164.22 288.83 165.07 289Q165.91 289.18 166.96 289.18Q169.08 289.18 170.08 288.36Q170.68 287.87 170.92 287.24Q171.08 286.81 171.08 286.33Q171.08 285.59 170.78 285.13Q170.66 284.93 170.5 284.77Q170.28 284.54 170 284.37Q169.51 284.08 168.94 283.92L168.94 283.85Q169.79 283.61 170.27 283.1Q170.33 283.04 170.39 282.96Q170.76 282.47 170.76 281.7Q170.76 281.04 170.47 280.55Q170.23 280.13 169.78 279.83ZM235.66 287.8Q236.82 286.49 236.82 284.15Q236.82 282.55 236.25 281.45Q235.85 280.65 235.22 280.12Q234.97 279.92 234.69 279.75Q234.63 279.72 234.57 279.69Q233.61 279.17 232.37 279.17Q230.85 279.17 229.79 279.87Q229.41 280.12 229.1 280.47Q229.08 280.48 229.07 280.49Q227.89 281.78 227.89 284.15Q227.89 285.76 228.47 286.88Q228.91 287.76 229.62 288.3Q229.82 288.46 230.04 288.59Q230.19 288.68 230.35 288.76Q231.24 289.18 232.32 289.18Q233.81 289.18 234.86 288.49Q235.27 288.23 235.6 287.86Q235.63 287.83 235.66 287.8ZM205.84 279.96Q205 279.19 203.23 279.19Q202.3 279.19 201.43 279.43Q200.57 279.67 199.94 280.01L200.43 281.2Q201.02 280.91 201.7 280.69Q201.75 280.67 201.8 280.66Q202.44 280.46 203.14 280.46Q204.1 280.46 204.62 280.93Q205.14 281.4 205.14 282.6L205.14 283.18L203.5 283.23Q201.15 283.31 200.01 284.09Q199.5 284.44 199.22 284.92Q198.88 285.52 198.88 286.31Q198.88 287.57 199.5 288.26Q199.61 288.38 199.74 288.49Q199.85 288.57 199.97 288.65Q200.78 289.18 201.92 289.18Q203.14 289.18 203.84 288.8Q204.53 288.42 205.16 287.63L205.23 287.63L205.54 289L206.69 289L206.69 282.43Q206.69 280.74 205.85 279.97L205.84 279.96ZM97.2 285.88Q97.22 285.45 97.22 285.23L97.22 279.35L95.73 279.35L95.73 289L97.69 289L102.82 280.93Q102.8 281.16 102.78 281.63Q102.77 282.08 102.76 282.55Q102.75 283.02 102.75 283.31L102.75 289L104.22 289L104.22 279.35L102.28 279.35L97.12 287.43Q97.13 287.18 97.16 286.75Q97.19 286.31 97.2 285.88ZM119.79 282.95Q120.12 282.49 120.12 281.78Q120.12 280.92 119.7 280.4Q119.68 280.36 119.65 280.33L119.64 280.32Q119.16 279.8 118.35 279.57Q117.53 279.35 116.5 279.35L112.36 279.35L112.36 289L116.52 289Q118.61 289 119.52 288.2Q119.96 287.8 120.19 287.31Q120.43 286.79 120.43 286.17Q120.43 285.31 120 284.81Q119.89 284.68 119.76 284.58Q119.63 284.48 119.48 284.39Q118.92 284.04 118.2 283.94L118.2 283.87Q119.04 283.69 119.58 283.18Q119.7 283.07 119.79 282.95ZM122.73 279.35L122.73 289L126.75 289Q128.73 289 129.61 288.2Q129.89 287.94 130.08 287.63Q130.49 286.96 130.49 286.04Q130.49 285.04 130.01 284.41Q129.83 284.18 129.59 283.99Q128.69 283.31 126.82 283.31L124.32 283.31L124.32 279.35L122.73 279.35ZM132.09 279.35L132.09 289L133.68 289L133.68 279.35L132.09 279.35ZM142.62 280.68L142.62 279.35L136.74 279.35L136.74 289L138.32 289L138.32 280.68L142.62 280.68ZM155.6 279.35L153.91 279.35L157.8 289.03L157.29 290.31Q157.01 291.08 156.49 291.55Q156.39 291.64 156.28 291.71Q155.82 292.02 155.15 292.02Q154.84 292.02 154.56 291.98Q154.29 291.95 154.09 291.91L154.09 293.17Q154.32 293.23 154.65 293.27Q154.97 293.32 155.4 293.32Q156.57 293.32 157.32 292.76Q157.47 292.64 157.61 292.5Q158.41 291.69 158.91 290.33L163.07 279.35L161.36 279.35L159.4 284.82Q159.15 285.56 158.91 286.29Q158.68 287.01 158.57 287.47L158.5 287.47Q158.39 286.87 158.17 286.22Q157.96 285.56 157.69 284.84L155.6 279.35ZM180.86 279.35L179.13 279.35L175.01 284.03L175.01 279.35L173.42 279.35L173.42 289L175.01 289L175.01 284.1L179.36 289L181.2 289L176.73 283.99L180.86 279.35ZM184.42 285.88Q184.44 285.45 184.44 285.23L184.44 279.35L182.94 279.35L182.94 289L184.91 289L190.03 280.93Q190.02 281.16 190 281.63Q189.98 282.08 189.97 282.55Q189.96 283.02 189.96 283.31L189.96 289L191.44 289L191.44 279.35L189.49 279.35L184.33 287.43Q184.35 287.18 184.37 286.75Q184.4 286.31 184.42 285.88ZM217.1 282.95Q217.44 282.49 217.44 281.78Q217.44 280.92 217.02 280.4Q216.99 280.36 216.96 280.33L216.95 280.32Q216.47 279.8 215.66 279.57Q214.84 279.35 213.82 279.35L209.68 279.35L209.68 289L213.83 289Q215.92 289 216.83 288.2Q217.28 287.8 217.5 287.31Q217.74 286.79 217.74 286.17Q217.74 285.31 217.31 284.81Q217.21 284.68 217.07 284.58Q216.94 284.48 216.8 284.39Q216.23 284.04 215.51 283.94L215.51 283.87Q216.36 283.69 216.9 283.18Q217.01 283.07 217.1 282.95ZM223.56 280.68L226.71 280.68L226.71 279.35L218.88 279.35L218.88 280.68L221.99 280.68L221.99 289L223.56 289L223.56 280.68ZM146.9 281.16Q147.52 280.5 148.83 280.5Q149.67 280.5 150.24 280.9Q150.57 281.13 150.8 281.49Q151.44 282.48 151.44 284.14Q151.44 285.22 151.16 286.06Q150.88 286.89 150.32 287.38Q150.23 287.46 150.12 287.52Q149.61 287.86 148.87 287.86Q147.57 287.86 146.94 287.21Q146.81 287.07 146.7 286.9Q146.12 285.94 146.12 284.15L146.12 283.85Q146.15 282.16 146.75 281.33Q146.82 281.24 146.9 281.16ZM230.2 286.86Q229.53 285.86 229.53 284.15Q229.53 282.44 230.19 281.47Q230.36 281.23 230.58 281.04Q231.24 280.5 232.34 280.5Q233.44 280.5 234.1 281.04Q234.32 281.22 234.5 281.47Q235.18 282.44 235.18 284.15Q235.18 285.86 234.5 286.86Q234.3 287.15 234.03 287.36Q233.39 287.86 232.36 287.86Q231.29 287.86 230.64 287.34Q230.39 287.14 230.2 286.86ZM118.3 281.23Q118.52 281.52 118.52 281.98Q118.52 282.29 118.39 282.53Q117.96 283.31 116.13 283.31L113.95 283.31L113.95 280.66L116.42 280.66Q117.53 280.66 118.02 280.98Q118.19 281.08 118.3 281.23ZM215.61 281.23Q215.83 281.52 215.83 281.98Q215.83 282.29 215.7 282.53Q215.27 283.31 213.44 283.31L211.26 283.31L211.26 280.66L213.73 280.66Q214.84 280.66 215.34 280.98Q215.5 281.08 215.61 281.23ZM201.21 284.91Q201.9 284.41 203.7 284.33L205.12 284.28L205.12 285.14Q205.12 286.35 204.52 287.02Q204.43 287.13 204.31 287.22Q204.16 287.35 203.99 287.46Q203.27 287.9 202.28 287.9Q201.51 287.9 201.02 287.53Q201.01 287.52 201.01 287.52Q200.92 287.45 200.84 287.36Q200.51 286.99 200.51 286.33Q200.51 285.79 200.75 285.4Q200.92 285.12 201.21 284.91ZM118.54 285.31Q118.79 285.65 118.79 286.17Q118.79 286.72 118.52 287.06Q118.38 287.24 118.16 287.37Q117.53 287.72 116.34 287.72L113.95 287.72L113.95 284.62L116.31 284.62Q117.53 284.62 118.16 284.98Q118.39 285.12 118.54 285.31ZM128.27 287.37Q127.63 287.72 126.6 287.72L124.32 287.72L124.32 284.62L126.62 284.62Q127.74 284.62 128.33 284.94Q128.48 285.02 128.6 285.14Q128.92 285.48 128.92 286.13Q128.92 286.72 128.64 287.07Q128.49 287.25 128.27 287.37ZM215.85 285.31Q216.1 285.65 216.1 286.17Q216.1 286.72 215.83 287.06Q215.69 287.24 215.47 287.37Q214.84 287.72 213.65 287.72L211.26 287.72L211.26 284.62L213.62 284.62Q214.84 284.62 215.47 284.98Q215.71 285.12 215.85 285.31Z" fill="#FFFFFF" fill-opacity="1.000000" fill-rule="evenodd"/>
</svg>
